G04 #@! TF.FileFunction,Copper,L1,Top,Signal*
%FSLAX46Y46*%
G04 Gerber Fmt 4.6, Leading zero omitted, Abs format (unit mm)*
G04 Created by KiCad (PCBNEW 4.0.5) date Saturday 15 April 2017 18:44:44*
%MOMM*%
%LPD*%
G01*
G04 APERTURE LIST*
%ADD10C,0.100000*%
%ADD11R,0.600000X0.500000*%
%ADD12R,0.800100X1.000000*%
%ADD13R,0.900000X0.800000*%
%ADD14R,1.300000X0.900000*%
%ADD15R,0.500000X0.600000*%
%ADD16O,3.200000X1.300000*%
%ADD17R,2.000000X1.200000*%
%ADD18R,2.700000X2.200000*%
%ADD19O,2.700000X2.200000*%
%ADD20R,0.750000X0.300000*%
%ADD21R,0.300000X0.750000*%
%ADD22R,1.700000X1.700000*%
%ADD23C,0.500000*%
%ADD24C,0.700000*%
%ADD25C,1.000000*%
%ADD26C,0.250000*%
%ADD27C,0.500000*%
%ADD28C,1.000000*%
%ADD29C,0.350000*%
%ADD30C,0.254000*%
G04 APERTURE END LIST*
D10*
D11*
X14000000Y800000D03*
X15200000Y800000D03*
X13150000Y800000D03*
X11950000Y800000D03*
X6950000Y4000000D03*
X8150000Y4000000D03*
X6850000Y6250000D03*
X8050000Y6250000D03*
X6850000Y9750000D03*
X8050000Y9750000D03*
D12*
X8500000Y3000760D03*
X6600000Y3000760D03*
X7550000Y1001780D03*
D11*
X6850000Y7000000D03*
X8050000Y7000000D03*
X8050000Y9000000D03*
X6850000Y9000000D03*
X12700000Y8150000D03*
X11500000Y8150000D03*
D13*
X13100000Y1900000D03*
X11300000Y1900000D03*
D14*
X15200000Y3800000D03*
X15200000Y1900000D03*
D15*
X9850000Y1000000D03*
X9850000Y2200000D03*
D11*
X13650000Y7200000D03*
X12450000Y7200000D03*
X14750000Y8150000D03*
X13550000Y8150000D03*
X11550000Y15200000D03*
X12750000Y15200000D03*
D15*
X9800000Y10100000D03*
X9800000Y8900000D03*
D11*
X14750000Y15200000D03*
X13550000Y15200000D03*
D15*
X5500000Y1800000D03*
X5500000Y3000000D03*
D11*
X5500000Y1000000D03*
X4300000Y1000000D03*
D15*
X9950000Y5300000D03*
X9950000Y6500000D03*
X9850000Y4300000D03*
X9850000Y3100000D03*
D16*
X2750000Y13850000D03*
D17*
X5300000Y4500000D03*
X5300000Y7000000D03*
X5300000Y9000000D03*
X5300000Y11500000D03*
D16*
X2750000Y2150000D03*
D10*
G36*
X14859099Y12821231D02*
X15071231Y12609099D01*
X14540901Y12078769D01*
X14328769Y12290901D01*
X14859099Y12821231D01*
X14859099Y12821231D01*
G37*
G36*
X14399479Y13280851D02*
X14611611Y13068719D01*
X14081281Y12538389D01*
X13869149Y12750521D01*
X14399479Y13280851D01*
X14399479Y13280851D01*
G37*
G36*
X13939860Y13740470D02*
X14151992Y13528338D01*
X13621662Y12998008D01*
X13409530Y13210140D01*
X13939860Y13740470D01*
X13939860Y13740470D01*
G37*
G36*
X13480240Y14200090D02*
X13692372Y13987958D01*
X13162042Y13457628D01*
X12949910Y13669760D01*
X13480240Y14200090D01*
X13480240Y14200090D01*
G37*
G36*
X11500342Y13987958D02*
X11712474Y14200090D01*
X12242804Y13669760D01*
X12030672Y13457628D01*
X11500342Y13987958D01*
X11500342Y13987958D01*
G37*
G36*
X11040722Y13528338D02*
X11252854Y13740470D01*
X11783184Y13210140D01*
X11571052Y12998008D01*
X11040722Y13528338D01*
X11040722Y13528338D01*
G37*
G36*
X10581103Y13068719D02*
X10793235Y13280851D01*
X11323565Y12750521D01*
X11111433Y12538389D01*
X10581103Y13068719D01*
X10581103Y13068719D01*
G37*
G36*
X10121483Y12609099D02*
X10333615Y12821231D01*
X10863945Y12290901D01*
X10651813Y12078769D01*
X10121483Y12609099D01*
X10121483Y12609099D01*
G37*
G36*
X10651813Y11371663D02*
X10863945Y11159531D01*
X10333615Y10629201D01*
X10121483Y10841333D01*
X10651813Y11371663D01*
X10651813Y11371663D01*
G37*
G36*
X11111433Y10912043D02*
X11323565Y10699911D01*
X10793235Y10169581D01*
X10581103Y10381713D01*
X11111433Y10912043D01*
X11111433Y10912043D01*
G37*
G36*
X11571052Y10452424D02*
X11783184Y10240292D01*
X11252854Y9709962D01*
X11040722Y9922094D01*
X11571052Y10452424D01*
X11571052Y10452424D01*
G37*
G36*
X12030672Y9992804D02*
X12242804Y9780672D01*
X11712474Y9250342D01*
X11500342Y9462474D01*
X12030672Y9992804D01*
X12030672Y9992804D01*
G37*
G36*
X12949910Y9780672D02*
X13162042Y9992804D01*
X13692372Y9462474D01*
X13480240Y9250342D01*
X12949910Y9780672D01*
X12949910Y9780672D01*
G37*
G36*
X13409530Y10240292D02*
X13621662Y10452424D01*
X14151992Y9922094D01*
X13939860Y9709962D01*
X13409530Y10240292D01*
X13409530Y10240292D01*
G37*
G36*
X13869149Y10699911D02*
X14081281Y10912043D01*
X14611611Y10381713D01*
X14399479Y10169581D01*
X13869149Y10699911D01*
X13869149Y10699911D01*
G37*
G36*
X14328769Y11159531D02*
X14540901Y11371663D01*
X15071231Y10841333D01*
X14859099Y10629201D01*
X14328769Y11159531D01*
X14328769Y11159531D01*
G37*
G36*
X12596357Y13280851D02*
X14151992Y11725216D01*
X12596357Y10169581D01*
X11040722Y11725216D01*
X12596357Y13280851D01*
X12596357Y13280851D01*
G37*
D18*
X19950000Y2285000D03*
D19*
X19950000Y6100000D03*
X19950000Y9900000D03*
X19950000Y13715000D03*
D20*
X13875000Y3775000D03*
X13875000Y4275000D03*
X13875000Y4775000D03*
X13875000Y5275000D03*
D21*
X13150000Y6000000D03*
X12650000Y6000000D03*
X12150000Y6000000D03*
X11650000Y6000000D03*
D20*
X10925000Y5275000D03*
X10925000Y4775000D03*
X10925000Y4275000D03*
X10925000Y3775000D03*
D21*
X11650000Y3050000D03*
X12150000Y3050000D03*
X12650000Y3050000D03*
X13150000Y3050000D03*
D22*
X12400000Y4525000D03*
D23*
X12400000Y4525000D03*
X11800000Y3925000D03*
X13000000Y5125000D03*
X13000000Y3925000D03*
X11800000Y5125000D03*
D24*
X7700020Y6202267D03*
X9800021Y9249902D03*
D25*
X7050000Y11500000D03*
D24*
X9450052Y3100000D03*
X11074271Y782664D03*
X14300000Y14250000D03*
X13550000Y9080582D03*
X10550000Y6500000D03*
X7550000Y10500000D03*
X14370240Y8710166D03*
X15550000Y14500000D03*
X15550000Y12450000D03*
D26*
X6850000Y7000000D02*
X6850000Y6250000D01*
X5300000Y7000000D02*
X6850000Y7000000D01*
D27*
X7747753Y6250000D02*
X7700020Y6202267D01*
X8050000Y6250000D02*
X7747753Y6250000D01*
X9800000Y9249881D02*
X9800021Y9249902D01*
X9800000Y8900000D02*
X9800000Y9249881D01*
D28*
X5300000Y11500000D02*
X7050000Y11500000D01*
D26*
X3000000Y1000000D02*
X2750000Y1250000D01*
X2750000Y1250000D02*
X2750000Y2150000D01*
X4300000Y1000000D02*
X3000000Y1000000D01*
D27*
X9850000Y3100000D02*
X9450052Y3100000D01*
X11300000Y1900000D02*
X11300000Y1008393D01*
X11300000Y1008393D02*
X11074271Y782664D01*
X11950000Y800000D02*
X11074271Y782664D01*
X11050000Y800000D02*
X11056935Y800000D01*
X11056935Y800000D02*
X11074271Y782664D01*
X13780761Y13369239D02*
X12596357Y12184835D01*
X12596357Y12184835D02*
X12596357Y11725216D01*
X14300000Y13888478D02*
X14300000Y14250000D01*
X13780761Y13369239D02*
X14300000Y13888478D01*
X13321141Y9621573D02*
X13321141Y9309441D01*
X13321141Y9309441D02*
X13550000Y9080582D01*
X9950000Y6500000D02*
X10550000Y6500000D01*
X8050000Y10000000D02*
X7550000Y10500000D01*
X8050000Y9750000D02*
X8050000Y10000000D01*
D26*
X12150000Y6000000D02*
X12150000Y5475000D01*
X12150000Y5475000D02*
X11800000Y5125000D01*
X11650000Y6000000D02*
X11650000Y5275000D01*
X11650000Y5275000D02*
X11800000Y5125000D01*
X12650000Y6000000D02*
X12650000Y5475000D01*
X12650000Y5475000D02*
X13000000Y5125000D01*
X13150000Y6000000D02*
X13150000Y5275000D01*
X13150000Y5275000D02*
X13000000Y5125000D01*
X13150000Y3050000D02*
X13150000Y3775000D01*
X13150000Y3775000D02*
X13000000Y3925000D01*
X12650000Y3050000D02*
X12650000Y3575000D01*
X12650000Y3575000D02*
X13000000Y3925000D01*
X6850000Y9000000D02*
X6850000Y9750000D01*
X5300000Y9000000D02*
X6850000Y9000000D01*
D27*
X14370240Y8710166D02*
X14370240Y8529760D01*
X14370240Y8529760D02*
X14750000Y8150000D01*
X14750000Y15200000D02*
X14850000Y15200000D01*
X14850000Y15200000D02*
X15550000Y14500000D01*
X15012132Y12450000D02*
X15550000Y12450000D01*
X14700000Y12450000D02*
X15012132Y12450000D01*
D26*
X10492714Y11000432D02*
X10492714Y12450000D01*
X9800000Y10100000D02*
X9800000Y10307718D01*
X9800000Y10307718D02*
X10492714Y11000432D01*
X9850000Y1000000D02*
X10350000Y1000000D01*
X10350000Y1000000D02*
X10524999Y1174999D01*
X10524999Y1174999D02*
X10524999Y2974999D01*
X10524999Y2974999D02*
X10925000Y3375000D01*
X7550000Y1001780D02*
X9848220Y1001780D01*
X9848220Y1001780D02*
X9850000Y1000000D01*
X11250000Y3050000D02*
X11650000Y3050000D01*
X10925000Y3775000D02*
X10925000Y3375000D01*
X10925000Y3375000D02*
X11250000Y3050000D01*
X10925000Y4775000D02*
X10925000Y4275000D01*
X9300760Y2200000D02*
X9850000Y2200000D01*
X9374999Y6974999D02*
X9600000Y7200000D01*
X9600000Y7200000D02*
X12450000Y7200000D01*
X8700000Y4000000D02*
X9374999Y4674999D01*
X9374999Y4674999D02*
X9374999Y6974999D01*
X8150000Y4000000D02*
X8700000Y4000000D01*
X8500000Y3000760D02*
X8500000Y3650000D01*
X8500000Y3650000D02*
X8150000Y4000000D01*
X8500000Y3000760D02*
X9300760Y2200000D01*
X12150000Y1900000D02*
X13100000Y1900000D01*
X12150000Y3050000D02*
X12150000Y1900000D01*
X9125011Y8575011D02*
X9125011Y12475011D01*
X8050000Y7000000D02*
X8050000Y7500000D01*
X9895495Y13245495D02*
X10616459Y13245495D01*
X10616459Y13245495D02*
X10952334Y12909620D01*
X8050000Y7500000D02*
X9125011Y8575011D01*
X9125011Y12475011D02*
X9895495Y13245495D01*
X11076078Y13705114D02*
X11411953Y13369239D01*
X8600000Y9000000D02*
X8675000Y9075000D01*
X8675000Y12661411D02*
X9718703Y13705114D01*
X9718703Y13705114D02*
X11076078Y13705114D01*
X8675000Y9075000D02*
X8675000Y12661411D01*
X8050000Y9000000D02*
X8600000Y9000000D01*
X12700000Y8150000D02*
X13550000Y8150000D01*
X12750000Y15200000D02*
X13550000Y15200000D01*
X13650000Y7200000D02*
X14935002Y7200000D01*
X14935002Y7200000D02*
X15375001Y7639999D01*
X15375001Y7639999D02*
X15375001Y8660001D01*
X15375001Y8660001D02*
X14289684Y9745318D01*
X14289684Y9745318D02*
X14116636Y9745318D01*
X14116636Y9745318D02*
X13780761Y10081193D01*
D29*
X10952334Y10540812D02*
X10616459Y10204937D01*
X10616459Y10204937D02*
X10616459Y8216469D01*
X10616459Y8216469D02*
X10100000Y7700010D01*
X10100000Y7700010D02*
X9392890Y7700010D01*
X9392890Y7700010D02*
X8874991Y7182111D01*
X8874991Y5174991D02*
X8325001Y4625001D01*
X8325001Y4625001D02*
X7275001Y4625001D01*
X8874991Y7182111D02*
X8874991Y5174991D01*
X7275001Y4625001D02*
X6950000Y4300000D01*
D27*
X6950000Y4000000D02*
X6950000Y4300000D01*
D26*
X5500000Y1800000D02*
X5500000Y1000000D01*
X14000000Y800000D02*
X13150000Y800000D01*
X19950000Y13715000D02*
X15045760Y13715000D01*
X15045760Y13715000D02*
X14240380Y12909620D01*
X19950000Y9900000D02*
X14881192Y9900000D01*
X14881192Y9900000D02*
X14240380Y10540812D01*
X10925000Y5275000D02*
X9975000Y5275000D01*
X9975000Y5275000D02*
X9950000Y5300000D01*
X11175332Y9327848D02*
X11175332Y9844572D01*
X11175332Y9844572D02*
X11411953Y10081193D01*
X11500000Y9003180D02*
X11175332Y9327848D01*
X11500000Y8150000D02*
X11500000Y9003180D01*
X11550000Y15200000D02*
X11550000Y14150432D01*
X11550000Y14150432D02*
X11871573Y13828859D01*
D30*
G36*
X11161536Y3675000D02*
X11188103Y3533810D01*
X11271546Y3404135D01*
X11398866Y3317141D01*
X11550000Y3286536D01*
X11611536Y3286536D01*
X11611536Y2688464D01*
X10850000Y2688464D01*
X10789075Y2677000D01*
X10463556Y2677000D01*
X10488464Y2800000D01*
X10488464Y3400000D01*
X10461897Y3541190D01*
X10378454Y3670865D01*
X10251134Y3757859D01*
X10100000Y3788464D01*
X9777000Y3788464D01*
X9777000Y4383360D01*
X9788143Y4400037D01*
X9842482Y4481361D01*
X9868375Y4611536D01*
X10200000Y4611536D01*
X10260925Y4623000D01*
X10450000Y4623000D01*
X10499410Y4633006D01*
X10541035Y4661447D01*
X10568315Y4703841D01*
X10574467Y4736536D01*
X11161536Y4736536D01*
X11161536Y3675000D01*
X11161536Y3675000D01*
G37*
X11161536Y3675000D02*
X11188103Y3533810D01*
X11271546Y3404135D01*
X11398866Y3317141D01*
X11550000Y3286536D01*
X11611536Y3286536D01*
X11611536Y2688464D01*
X10850000Y2688464D01*
X10789075Y2677000D01*
X10463556Y2677000D01*
X10488464Y2800000D01*
X10488464Y3400000D01*
X10461897Y3541190D01*
X10378454Y3670865D01*
X10251134Y3757859D01*
X10100000Y3788464D01*
X9777000Y3788464D01*
X9777000Y4383360D01*
X9788143Y4400037D01*
X9842482Y4481361D01*
X9868375Y4611536D01*
X10200000Y4611536D01*
X10260925Y4623000D01*
X10450000Y4623000D01*
X10499410Y4633006D01*
X10541035Y4661447D01*
X10568315Y4703841D01*
X10574467Y4736536D01*
X11161536Y4736536D01*
X11161536Y3675000D01*
G36*
X15923000Y3127000D02*
X13688464Y3127000D01*
X13688464Y3425000D01*
X13661897Y3566190D01*
X13656000Y3575354D01*
X13656000Y3775000D01*
X13638464Y3863159D01*
X13638464Y4736536D01*
X14250000Y4736536D01*
X14391190Y4763103D01*
X14520865Y4846546D01*
X14538940Y4873000D01*
X15923000Y4873000D01*
X15923000Y3127000D01*
X15923000Y3127000D01*
G37*
X15923000Y3127000D02*
X13688464Y3127000D01*
X13688464Y3425000D01*
X13661897Y3566190D01*
X13656000Y3575354D01*
X13656000Y3775000D01*
X13638464Y3863159D01*
X13638464Y4736536D01*
X14250000Y4736536D01*
X14391190Y4763103D01*
X14520865Y4846546D01*
X14538940Y4873000D01*
X15923000Y4873000D01*
X15923000Y3127000D01*
G36*
X18223000Y2506250D02*
X18317250Y2412000D01*
X19823000Y2412000D01*
X19823000Y2432000D01*
X20077000Y2432000D01*
X20077000Y2412000D01*
X20097000Y2412000D01*
X20097000Y2158000D01*
X20077000Y2158000D01*
X20077000Y902250D01*
X20171250Y808000D01*
X21373000Y808000D01*
X21373000Y627000D01*
X14727000Y627000D01*
X14727000Y1350000D01*
X14716994Y1399410D01*
X14688553Y1441035D01*
X14646159Y1468315D01*
X14600000Y1477000D01*
X12133807Y1477000D01*
X12138464Y1500000D01*
X12138464Y2063750D01*
X18223000Y2063750D01*
X18223000Y1110010D01*
X18280395Y971447D01*
X18386447Y865395D01*
X18525010Y808000D01*
X19728750Y808000D01*
X19823000Y902250D01*
X19823000Y2158000D01*
X18317250Y2158000D01*
X18223000Y2063750D01*
X12138464Y2063750D01*
X12138464Y2300000D01*
X12124728Y2373000D01*
X12267114Y2373000D01*
X12348866Y2317141D01*
X12500000Y2286536D01*
X12800000Y2286536D01*
X12903670Y2306043D01*
X13000000Y2286536D01*
X13300000Y2286536D01*
X13441190Y2313103D01*
X13534273Y2373000D01*
X16550000Y2373000D01*
X16599410Y2383006D01*
X16641035Y2411447D01*
X16668315Y2453841D01*
X16677000Y2500000D01*
X16677000Y3373000D01*
X18223000Y3373000D01*
X18223000Y2506250D01*
X18223000Y2506250D01*
G37*
X18223000Y2506250D02*
X18317250Y2412000D01*
X19823000Y2412000D01*
X19823000Y2432000D01*
X20077000Y2432000D01*
X20077000Y2412000D01*
X20097000Y2412000D01*
X20097000Y2158000D01*
X20077000Y2158000D01*
X20077000Y902250D01*
X20171250Y808000D01*
X21373000Y808000D01*
X21373000Y627000D01*
X14727000Y627000D01*
X14727000Y1350000D01*
X14716994Y1399410D01*
X14688553Y1441035D01*
X14646159Y1468315D01*
X14600000Y1477000D01*
X12133807Y1477000D01*
X12138464Y1500000D01*
X12138464Y2063750D01*
X18223000Y2063750D01*
X18223000Y1110010D01*
X18280395Y971447D01*
X18386447Y865395D01*
X18525010Y808000D01*
X19728750Y808000D01*
X19823000Y902250D01*
X19823000Y2158000D01*
X18317250Y2158000D01*
X18223000Y2063750D01*
X12138464Y2063750D01*
X12138464Y2300000D01*
X12124728Y2373000D01*
X12267114Y2373000D01*
X12348866Y2317141D01*
X12500000Y2286536D01*
X12800000Y2286536D01*
X12903670Y2306043D01*
X13000000Y2286536D01*
X13300000Y2286536D01*
X13441190Y2313103D01*
X13534273Y2373000D01*
X16550000Y2373000D01*
X16599410Y2383006D01*
X16641035Y2411447D01*
X16668315Y2453841D01*
X16677000Y2500000D01*
X16677000Y3373000D01*
X18223000Y3373000D01*
X18223000Y2506250D01*
G36*
X7423000Y2377000D02*
X6019475Y2377000D01*
X5901134Y2457859D01*
X5750000Y2488464D01*
X5250000Y2488464D01*
X5108810Y2461897D01*
X4979135Y2378454D01*
X4978142Y2377000D01*
X4724657Y2377000D01*
X4691330Y2544547D01*
X4467837Y2879027D01*
X4327000Y2973132D01*
X4327000Y5073000D01*
X7423000Y5073000D01*
X7423000Y2377000D01*
X7423000Y2377000D01*
G37*
X7423000Y2377000D02*
X6019475Y2377000D01*
X5901134Y2457859D01*
X5750000Y2488464D01*
X5250000Y2488464D01*
X5108810Y2461897D01*
X4979135Y2378454D01*
X4978142Y2377000D01*
X4724657Y2377000D01*
X4691330Y2544547D01*
X4467837Y2879027D01*
X4327000Y2973132D01*
X4327000Y5073000D01*
X7423000Y5073000D01*
X7423000Y2377000D01*
G36*
X10473000Y12627450D02*
X10473000Y10822982D01*
X10327018Y10677000D01*
X10150000Y10677000D01*
X10100590Y10666994D01*
X10058965Y10638553D01*
X10031685Y10596159D01*
X10023000Y10550000D01*
X10023000Y9877000D01*
X9631011Y9877000D01*
X9631011Y12265419D01*
X10114696Y12749104D01*
X10351346Y12749104D01*
X10473000Y12627450D01*
X10473000Y12627450D01*
G37*
X10473000Y12627450D02*
X10473000Y10822982D01*
X10327018Y10677000D01*
X10150000Y10677000D01*
X10100590Y10666994D01*
X10058965Y10638553D01*
X10031685Y10596159D01*
X10023000Y10550000D01*
X10023000Y9877000D01*
X9631011Y9877000D01*
X9631011Y12265419D01*
X10114696Y12749104D01*
X10351346Y12749104D01*
X10473000Y12627450D01*
M02*
