G04 #@! TF.FileFunction,Paste,Top*
%FSLAX46Y46*%
G04 Gerber Fmt 4.6, Leading zero omitted, Abs format (unit mm)*
G04 Created by KiCad (PCBNEW 4.0.5) date Saturday 15 April 2017 18:44:44*
%MOMM*%
%LPD*%
G01*
G04 APERTURE LIST*
%ADD10C,0.100000*%
%ADD11R,0.600000X0.500000*%
%ADD12R,0.800100X1.000000*%
%ADD13R,0.900000X0.800000*%
%ADD14R,1.300000X0.900000*%
%ADD15R,0.500000X0.600000*%
%ADD16R,2.000000X1.200000*%
%ADD17R,0.750000X0.300000*%
%ADD18R,0.300000X0.750000*%
%ADD19R,1.700000X1.700000*%
G04 APERTURE END LIST*
D10*
D11*
X14000000Y800000D03*
X15200000Y800000D03*
X13150000Y800000D03*
X11950000Y800000D03*
X6950000Y4000000D03*
X8150000Y4000000D03*
X6850000Y6250000D03*
X8050000Y6250000D03*
X6850000Y9750000D03*
X8050000Y9750000D03*
D12*
X8500000Y3000760D03*
X6600000Y3000760D03*
X7550000Y1001780D03*
D11*
X6850000Y7000000D03*
X8050000Y7000000D03*
X8050000Y9000000D03*
X6850000Y9000000D03*
X12700000Y8150000D03*
X11500000Y8150000D03*
D13*
X13100000Y1900000D03*
X11300000Y1900000D03*
D14*
X15200000Y3800000D03*
X15200000Y1900000D03*
D15*
X9850000Y1000000D03*
X9850000Y2200000D03*
D11*
X13650000Y7200000D03*
X12450000Y7200000D03*
X14750000Y8150000D03*
X13550000Y8150000D03*
X11550000Y15200000D03*
X12750000Y15200000D03*
D15*
X9800000Y10100000D03*
X9800000Y8900000D03*
D11*
X14750000Y15200000D03*
X13550000Y15200000D03*
D15*
X5500000Y1800000D03*
X5500000Y3000000D03*
D11*
X5500000Y1000000D03*
X4300000Y1000000D03*
D15*
X9950000Y5300000D03*
X9950000Y6500000D03*
X9850000Y4300000D03*
X9850000Y3100000D03*
D16*
X5300000Y4500000D03*
X5300000Y7000000D03*
X5300000Y9000000D03*
X5300000Y11500000D03*
D10*
G36*
X14859099Y12821231D02*
X15071231Y12609099D01*
X14540901Y12078769D01*
X14328769Y12290901D01*
X14859099Y12821231D01*
X14859099Y12821231D01*
G37*
G36*
X14399479Y13280851D02*
X14611611Y13068719D01*
X14081281Y12538389D01*
X13869149Y12750521D01*
X14399479Y13280851D01*
X14399479Y13280851D01*
G37*
G36*
X13939860Y13740470D02*
X14151992Y13528338D01*
X13621662Y12998008D01*
X13409530Y13210140D01*
X13939860Y13740470D01*
X13939860Y13740470D01*
G37*
G36*
X13480240Y14200090D02*
X13692372Y13987958D01*
X13162042Y13457628D01*
X12949910Y13669760D01*
X13480240Y14200090D01*
X13480240Y14200090D01*
G37*
G36*
X11500342Y13987958D02*
X11712474Y14200090D01*
X12242804Y13669760D01*
X12030672Y13457628D01*
X11500342Y13987958D01*
X11500342Y13987958D01*
G37*
G36*
X11040722Y13528338D02*
X11252854Y13740470D01*
X11783184Y13210140D01*
X11571052Y12998008D01*
X11040722Y13528338D01*
X11040722Y13528338D01*
G37*
G36*
X10581103Y13068719D02*
X10793235Y13280851D01*
X11323565Y12750521D01*
X11111433Y12538389D01*
X10581103Y13068719D01*
X10581103Y13068719D01*
G37*
G36*
X10121483Y12609099D02*
X10333615Y12821231D01*
X10863945Y12290901D01*
X10651813Y12078769D01*
X10121483Y12609099D01*
X10121483Y12609099D01*
G37*
G36*
X10651813Y11371663D02*
X10863945Y11159531D01*
X10333615Y10629201D01*
X10121483Y10841333D01*
X10651813Y11371663D01*
X10651813Y11371663D01*
G37*
G36*
X11111433Y10912043D02*
X11323565Y10699911D01*
X10793235Y10169581D01*
X10581103Y10381713D01*
X11111433Y10912043D01*
X11111433Y10912043D01*
G37*
G36*
X11571052Y10452424D02*
X11783184Y10240292D01*
X11252854Y9709962D01*
X11040722Y9922094D01*
X11571052Y10452424D01*
X11571052Y10452424D01*
G37*
G36*
X12030672Y9992804D02*
X12242804Y9780672D01*
X11712474Y9250342D01*
X11500342Y9462474D01*
X12030672Y9992804D01*
X12030672Y9992804D01*
G37*
G36*
X12949910Y9780672D02*
X13162042Y9992804D01*
X13692372Y9462474D01*
X13480240Y9250342D01*
X12949910Y9780672D01*
X12949910Y9780672D01*
G37*
G36*
X13409530Y10240292D02*
X13621662Y10452424D01*
X14151992Y9922094D01*
X13939860Y9709962D01*
X13409530Y10240292D01*
X13409530Y10240292D01*
G37*
G36*
X13869149Y10699911D02*
X14081281Y10912043D01*
X14611611Y10381713D01*
X14399479Y10169581D01*
X13869149Y10699911D01*
X13869149Y10699911D01*
G37*
G36*
X14328769Y11159531D02*
X14540901Y11371663D01*
X15071231Y10841333D01*
X14859099Y10629201D01*
X14328769Y11159531D01*
X14328769Y11159531D01*
G37*
G36*
X12596357Y13280851D02*
X14151992Y11725216D01*
X12596357Y10169581D01*
X11040722Y11725216D01*
X12596357Y13280851D01*
X12596357Y13280851D01*
G37*
D17*
X13875000Y3775000D03*
X13875000Y4275000D03*
X13875000Y4775000D03*
X13875000Y5275000D03*
D18*
X13150000Y6000000D03*
X12650000Y6000000D03*
X12150000Y6000000D03*
X11650000Y6000000D03*
D17*
X10925000Y5275000D03*
X10925000Y4775000D03*
X10925000Y4275000D03*
X10925000Y3775000D03*
D18*
X11650000Y3050000D03*
X12150000Y3050000D03*
X12650000Y3050000D03*
X13150000Y3050000D03*
D19*
X12400000Y4525000D03*
M02*
