G04 #@! TF.FileFunction,Copper,L2,Bot,Signal*
%FSLAX46Y46*%
G04 Gerber Fmt 4.6, Leading zero omitted, Abs format (unit mm)*
G04 Created by KiCad (PCBNEW 4.0.5) date Saturday 15 April 2017 18:44:44*
%MOMM*%
%LPD*%
G01*
G04 APERTURE LIST*
%ADD10C,0.100000*%
%ADD11O,3.200000X1.300000*%
%ADD12R,2.700000X2.200000*%
%ADD13O,2.700000X2.200000*%
%ADD14C,0.500000*%
%ADD15C,0.700000*%
%ADD16C,1.000000*%
%ADD17C,0.500000*%
%ADD18C,0.254000*%
G04 APERTURE END LIST*
D10*
D11*
X2750000Y13850000D03*
X2750000Y2150000D03*
D12*
X19950000Y2285000D03*
D13*
X19950000Y6100000D03*
X19950000Y9900000D03*
X19950000Y13715000D03*
D14*
X12400000Y4525000D03*
X11800000Y3925000D03*
X13000000Y5125000D03*
X13000000Y3925000D03*
X11800000Y5125000D03*
D15*
X7700020Y6202267D03*
X9800021Y9249902D03*
D16*
X7050000Y11500000D03*
D15*
X9450052Y3100000D03*
X11074271Y782664D03*
X14300000Y14250000D03*
X13550000Y9080582D03*
X10550000Y6500000D03*
X7550000Y10500000D03*
X14370240Y8710166D03*
X15550000Y14500000D03*
X15550000Y12450000D03*
D17*
X15550000Y10100000D02*
X14370240Y8920240D01*
X14370240Y8920240D02*
X14370240Y8710166D01*
X15550000Y11955026D02*
X15550000Y10100000D01*
X15550000Y12450000D02*
X15550000Y11955026D01*
X15550000Y12450000D02*
X15550000Y14500000D01*
D18*
G36*
X24373000Y627000D02*
X627000Y627000D01*
X627000Y1865139D01*
X813297Y1865139D01*
X983999Y1513605D01*
X1289651Y1249777D01*
X1673000Y1123000D01*
X2623000Y1123000D01*
X2623000Y2023000D01*
X2877000Y2023000D01*
X2877000Y1123000D01*
X3827000Y1123000D01*
X4210349Y1249777D01*
X4516001Y1513605D01*
X4686703Y1865139D01*
X4624064Y2023000D01*
X2877000Y2023000D01*
X2623000Y2023000D01*
X875936Y2023000D01*
X813297Y1865139D01*
X627000Y1865139D01*
X627000Y2434861D01*
X813297Y2434861D01*
X875936Y2277000D01*
X2623000Y2277000D01*
X2623000Y3177000D01*
X2877000Y3177000D01*
X2877000Y2277000D01*
X4624064Y2277000D01*
X4686703Y2434861D01*
X4516001Y2786395D01*
X4210349Y3050223D01*
X3827000Y3177000D01*
X2877000Y3177000D01*
X2623000Y3177000D01*
X1673000Y3177000D01*
X1289651Y3050223D01*
X983999Y2786395D01*
X813297Y2434861D01*
X627000Y2434861D01*
X627000Y3461487D01*
X11513264Y3461487D01*
X11532619Y3344318D01*
X11775190Y3286198D01*
X12021537Y3325329D01*
X12067381Y3344318D01*
X12086736Y3461487D01*
X12713264Y3461487D01*
X12732619Y3344318D01*
X12975190Y3286198D01*
X13221537Y3325329D01*
X13267381Y3344318D01*
X13274101Y3385000D01*
X18211536Y3385000D01*
X18211536Y1185000D01*
X18238103Y1043810D01*
X18321546Y914135D01*
X18448866Y827141D01*
X18600000Y796536D01*
X21300000Y796536D01*
X21441190Y823103D01*
X21570865Y906546D01*
X21657859Y1033866D01*
X21688464Y1185000D01*
X21688464Y3385000D01*
X21661897Y3526190D01*
X21578454Y3655865D01*
X21451134Y3742859D01*
X21300000Y3773464D01*
X18600000Y3773464D01*
X18458810Y3746897D01*
X18329135Y3663454D01*
X18242141Y3536134D01*
X18211536Y3385000D01*
X13274101Y3385000D01*
X13286736Y3461487D01*
X13000000Y3748223D01*
X12713264Y3461487D01*
X12086736Y3461487D01*
X11800000Y3748223D01*
X11513264Y3461487D01*
X627000Y3461487D01*
X627000Y3949810D01*
X11161198Y3949810D01*
X11200329Y3703463D01*
X11219318Y3657619D01*
X11336487Y3638264D01*
X11623223Y3925000D01*
X11976777Y3925000D01*
X12263513Y3638264D01*
X12380682Y3657619D01*
X12396875Y3725204D01*
X12400329Y3703463D01*
X12419318Y3657619D01*
X12536487Y3638264D01*
X12823223Y3925000D01*
X13176777Y3925000D01*
X13463513Y3638264D01*
X13580682Y3657619D01*
X13638802Y3900190D01*
X13599671Y4146537D01*
X13580682Y4192381D01*
X13463513Y4211736D01*
X13176777Y3925000D01*
X12823223Y3925000D01*
X12400000Y4348223D01*
X11976777Y3925000D01*
X11623223Y3925000D01*
X11336487Y4211736D01*
X11219318Y4192381D01*
X11161198Y3949810D01*
X627000Y3949810D01*
X627000Y4661487D01*
X11513264Y4661487D01*
X11532619Y4544318D01*
X11600204Y4528125D01*
X11578463Y4524671D01*
X11532619Y4505682D01*
X11513264Y4388513D01*
X11800000Y4101777D01*
X12223223Y4525000D01*
X12576777Y4525000D01*
X13000000Y4101777D01*
X13286736Y4388513D01*
X13267381Y4505682D01*
X13199796Y4521875D01*
X13221537Y4525329D01*
X13267381Y4544318D01*
X13286736Y4661487D01*
X13000000Y4948223D01*
X12576777Y4525000D01*
X12223223Y4525000D01*
X11800000Y4948223D01*
X11513264Y4661487D01*
X627000Y4661487D01*
X627000Y5565625D01*
X1768839Y5565625D01*
X1910277Y5223320D01*
X2171943Y4961197D01*
X2514000Y4819162D01*
X2884375Y4818839D01*
X3226680Y4960277D01*
X3416544Y5149810D01*
X11161198Y5149810D01*
X11200329Y4903463D01*
X11219318Y4857619D01*
X11336487Y4838264D01*
X11623223Y5125000D01*
X11976777Y5125000D01*
X12400000Y4701777D01*
X12823223Y5125000D01*
X13176777Y5125000D01*
X13463513Y4838264D01*
X13580682Y4857619D01*
X13638802Y5100190D01*
X13599671Y5346537D01*
X13580682Y5392381D01*
X13463513Y5411736D01*
X13176777Y5125000D01*
X12823223Y5125000D01*
X12536487Y5411736D01*
X12419318Y5392381D01*
X12403125Y5324796D01*
X12399671Y5346537D01*
X12380682Y5392381D01*
X12263513Y5411736D01*
X11976777Y5125000D01*
X11623223Y5125000D01*
X11336487Y5411736D01*
X11219318Y5392381D01*
X11161198Y5149810D01*
X3416544Y5149810D01*
X3488803Y5221943D01*
X3630838Y5564000D01*
X3630859Y5588513D01*
X11513264Y5588513D01*
X11800000Y5301777D01*
X12086736Y5588513D01*
X12713264Y5588513D01*
X13000000Y5301777D01*
X13286736Y5588513D01*
X13267381Y5705682D01*
X13105929Y5744366D01*
X18266454Y5744366D01*
X18287401Y5634369D01*
X18573118Y5129235D01*
X19030392Y4771891D01*
X19589608Y4616739D01*
X19823000Y4711981D01*
X19823000Y5973000D01*
X20077000Y5973000D01*
X20077000Y4711981D01*
X20310392Y4616739D01*
X20869608Y4771891D01*
X21326882Y5129235D01*
X21612599Y5634369D01*
X21633546Y5744366D01*
X21576905Y5973000D01*
X20077000Y5973000D01*
X19823000Y5973000D01*
X18323095Y5973000D01*
X18266454Y5744366D01*
X13105929Y5744366D01*
X13024810Y5763802D01*
X12778463Y5724671D01*
X12732619Y5705682D01*
X12713264Y5588513D01*
X12086736Y5588513D01*
X12067381Y5705682D01*
X11824810Y5763802D01*
X11578463Y5724671D01*
X11532619Y5705682D01*
X11513264Y5588513D01*
X3630859Y5588513D01*
X3631161Y5934375D01*
X3489723Y6276680D01*
X3311081Y6455634D01*
X18266454Y6455634D01*
X18323095Y6227000D01*
X19823000Y6227000D01*
X19823000Y7488019D01*
X20077000Y7488019D01*
X20077000Y6227000D01*
X21576905Y6227000D01*
X21633546Y6455634D01*
X21612599Y6565631D01*
X21326882Y7070765D01*
X20869608Y7428109D01*
X20310392Y7583261D01*
X20077000Y7488019D01*
X19823000Y7488019D01*
X19589608Y7583261D01*
X19030392Y7428109D01*
X18573118Y7070765D01*
X18287401Y6565631D01*
X18266454Y6455634D01*
X3311081Y6455634D01*
X3228057Y6538803D01*
X2886000Y6680838D01*
X2515625Y6681161D01*
X2173320Y6539723D01*
X1911197Y6278057D01*
X1769162Y5936000D01*
X1768839Y5565625D01*
X627000Y5565625D01*
X627000Y8565399D01*
X13639114Y8565399D01*
X13750167Y8296629D01*
X13955621Y8090816D01*
X14224197Y7979293D01*
X14515007Y7979040D01*
X14783777Y8090093D01*
X14989590Y8295547D01*
X15101113Y8564123D01*
X15101282Y8758914D01*
X15996185Y9653816D01*
X16132968Y9858527D01*
X16141217Y9900000D01*
X18185088Y9900000D01*
X18297822Y9333246D01*
X18618863Y8852775D01*
X19099334Y8531734D01*
X19666088Y8419000D01*
X20233912Y8419000D01*
X20800666Y8531734D01*
X21281137Y8852775D01*
X21602178Y9333246D01*
X21714912Y9900000D01*
X21602178Y10466754D01*
X21281137Y10947225D01*
X20800666Y11268266D01*
X20233912Y11381000D01*
X19666088Y11381000D01*
X19099334Y11268266D01*
X18618863Y10947225D01*
X18297822Y10466754D01*
X18185088Y9900000D01*
X16141217Y9900000D01*
X16181000Y10100000D01*
X16181000Y12063437D01*
X16280873Y12303957D01*
X16281126Y12594767D01*
X16181000Y12837092D01*
X16181000Y13715000D01*
X18185088Y13715000D01*
X18297822Y13148246D01*
X18618863Y12667775D01*
X19099334Y12346734D01*
X19666088Y12234000D01*
X20233912Y12234000D01*
X20800666Y12346734D01*
X21281137Y12667775D01*
X21602178Y13148246D01*
X21714912Y13715000D01*
X21602178Y14281754D01*
X21281137Y14762225D01*
X20800666Y15083266D01*
X20233912Y15196000D01*
X19666088Y15196000D01*
X19099334Y15083266D01*
X18618863Y14762225D01*
X18297822Y14281754D01*
X18185088Y13715000D01*
X16181000Y13715000D01*
X16181000Y14113437D01*
X16280873Y14353957D01*
X16281126Y14644767D01*
X16170073Y14913537D01*
X15964619Y15119350D01*
X15696043Y15230873D01*
X15405233Y15231126D01*
X15136463Y15120073D01*
X14930650Y14914619D01*
X14819127Y14646043D01*
X14818874Y14355233D01*
X14919000Y14112908D01*
X14919000Y12836563D01*
X14819127Y12596043D01*
X14818874Y12305233D01*
X14919000Y12062908D01*
X14919000Y10361369D01*
X13924056Y9366424D01*
X13787272Y9161713D01*
X13787121Y9160953D01*
X13750890Y9124785D01*
X13639367Y8856209D01*
X13639114Y8565399D01*
X627000Y8565399D01*
X627000Y10065625D01*
X1768839Y10065625D01*
X1910277Y9723320D01*
X2171943Y9461197D01*
X2514000Y9319162D01*
X2884375Y9318839D01*
X3226680Y9460277D01*
X3488803Y9721943D01*
X3630838Y10064000D01*
X3631161Y10434375D01*
X3489723Y10776680D01*
X3228057Y11038803D01*
X2886000Y11180838D01*
X2515625Y11181161D01*
X2173320Y11039723D01*
X1911197Y10778057D01*
X1769162Y10436000D01*
X1768839Y10065625D01*
X627000Y10065625D01*
X627000Y13565139D01*
X813297Y13565139D01*
X983999Y13213605D01*
X1289651Y12949777D01*
X1673000Y12823000D01*
X2623000Y12823000D01*
X2623000Y13723000D01*
X2877000Y13723000D01*
X2877000Y12823000D01*
X3827000Y12823000D01*
X4210349Y12949777D01*
X4516001Y13213605D01*
X4686703Y13565139D01*
X4624064Y13723000D01*
X2877000Y13723000D01*
X2623000Y13723000D01*
X875936Y13723000D01*
X813297Y13565139D01*
X627000Y13565139D01*
X627000Y14134861D01*
X813297Y14134861D01*
X875936Y13977000D01*
X2623000Y13977000D01*
X2623000Y14877000D01*
X2877000Y14877000D01*
X2877000Y13977000D01*
X4624064Y13977000D01*
X4686703Y14134861D01*
X4516001Y14486395D01*
X4210349Y14750223D01*
X3827000Y14877000D01*
X2877000Y14877000D01*
X2623000Y14877000D01*
X1673000Y14877000D01*
X1289651Y14750223D01*
X983999Y14486395D01*
X813297Y14134861D01*
X627000Y14134861D01*
X627000Y15373000D01*
X24373000Y15373000D01*
X24373000Y627000D01*
X24373000Y627000D01*
G37*
X24373000Y627000D02*
X627000Y627000D01*
X627000Y1865139D01*
X813297Y1865139D01*
X983999Y1513605D01*
X1289651Y1249777D01*
X1673000Y1123000D01*
X2623000Y1123000D01*
X2623000Y2023000D01*
X2877000Y2023000D01*
X2877000Y1123000D01*
X3827000Y1123000D01*
X4210349Y1249777D01*
X4516001Y1513605D01*
X4686703Y1865139D01*
X4624064Y2023000D01*
X2877000Y2023000D01*
X2623000Y2023000D01*
X875936Y2023000D01*
X813297Y1865139D01*
X627000Y1865139D01*
X627000Y2434861D01*
X813297Y2434861D01*
X875936Y2277000D01*
X2623000Y2277000D01*
X2623000Y3177000D01*
X2877000Y3177000D01*
X2877000Y2277000D01*
X4624064Y2277000D01*
X4686703Y2434861D01*
X4516001Y2786395D01*
X4210349Y3050223D01*
X3827000Y3177000D01*
X2877000Y3177000D01*
X2623000Y3177000D01*
X1673000Y3177000D01*
X1289651Y3050223D01*
X983999Y2786395D01*
X813297Y2434861D01*
X627000Y2434861D01*
X627000Y3461487D01*
X11513264Y3461487D01*
X11532619Y3344318D01*
X11775190Y3286198D01*
X12021537Y3325329D01*
X12067381Y3344318D01*
X12086736Y3461487D01*
X12713264Y3461487D01*
X12732619Y3344318D01*
X12975190Y3286198D01*
X13221537Y3325329D01*
X13267381Y3344318D01*
X13274101Y3385000D01*
X18211536Y3385000D01*
X18211536Y1185000D01*
X18238103Y1043810D01*
X18321546Y914135D01*
X18448866Y827141D01*
X18600000Y796536D01*
X21300000Y796536D01*
X21441190Y823103D01*
X21570865Y906546D01*
X21657859Y1033866D01*
X21688464Y1185000D01*
X21688464Y3385000D01*
X21661897Y3526190D01*
X21578454Y3655865D01*
X21451134Y3742859D01*
X21300000Y3773464D01*
X18600000Y3773464D01*
X18458810Y3746897D01*
X18329135Y3663454D01*
X18242141Y3536134D01*
X18211536Y3385000D01*
X13274101Y3385000D01*
X13286736Y3461487D01*
X13000000Y3748223D01*
X12713264Y3461487D01*
X12086736Y3461487D01*
X11800000Y3748223D01*
X11513264Y3461487D01*
X627000Y3461487D01*
X627000Y3949810D01*
X11161198Y3949810D01*
X11200329Y3703463D01*
X11219318Y3657619D01*
X11336487Y3638264D01*
X11623223Y3925000D01*
X11976777Y3925000D01*
X12263513Y3638264D01*
X12380682Y3657619D01*
X12396875Y3725204D01*
X12400329Y3703463D01*
X12419318Y3657619D01*
X12536487Y3638264D01*
X12823223Y3925000D01*
X13176777Y3925000D01*
X13463513Y3638264D01*
X13580682Y3657619D01*
X13638802Y3900190D01*
X13599671Y4146537D01*
X13580682Y4192381D01*
X13463513Y4211736D01*
X13176777Y3925000D01*
X12823223Y3925000D01*
X12400000Y4348223D01*
X11976777Y3925000D01*
X11623223Y3925000D01*
X11336487Y4211736D01*
X11219318Y4192381D01*
X11161198Y3949810D01*
X627000Y3949810D01*
X627000Y4661487D01*
X11513264Y4661487D01*
X11532619Y4544318D01*
X11600204Y4528125D01*
X11578463Y4524671D01*
X11532619Y4505682D01*
X11513264Y4388513D01*
X11800000Y4101777D01*
X12223223Y4525000D01*
X12576777Y4525000D01*
X13000000Y4101777D01*
X13286736Y4388513D01*
X13267381Y4505682D01*
X13199796Y4521875D01*
X13221537Y4525329D01*
X13267381Y4544318D01*
X13286736Y4661487D01*
X13000000Y4948223D01*
X12576777Y4525000D01*
X12223223Y4525000D01*
X11800000Y4948223D01*
X11513264Y4661487D01*
X627000Y4661487D01*
X627000Y5565625D01*
X1768839Y5565625D01*
X1910277Y5223320D01*
X2171943Y4961197D01*
X2514000Y4819162D01*
X2884375Y4818839D01*
X3226680Y4960277D01*
X3416544Y5149810D01*
X11161198Y5149810D01*
X11200329Y4903463D01*
X11219318Y4857619D01*
X11336487Y4838264D01*
X11623223Y5125000D01*
X11976777Y5125000D01*
X12400000Y4701777D01*
X12823223Y5125000D01*
X13176777Y5125000D01*
X13463513Y4838264D01*
X13580682Y4857619D01*
X13638802Y5100190D01*
X13599671Y5346537D01*
X13580682Y5392381D01*
X13463513Y5411736D01*
X13176777Y5125000D01*
X12823223Y5125000D01*
X12536487Y5411736D01*
X12419318Y5392381D01*
X12403125Y5324796D01*
X12399671Y5346537D01*
X12380682Y5392381D01*
X12263513Y5411736D01*
X11976777Y5125000D01*
X11623223Y5125000D01*
X11336487Y5411736D01*
X11219318Y5392381D01*
X11161198Y5149810D01*
X3416544Y5149810D01*
X3488803Y5221943D01*
X3630838Y5564000D01*
X3630859Y5588513D01*
X11513264Y5588513D01*
X11800000Y5301777D01*
X12086736Y5588513D01*
X12713264Y5588513D01*
X13000000Y5301777D01*
X13286736Y5588513D01*
X13267381Y5705682D01*
X13105929Y5744366D01*
X18266454Y5744366D01*
X18287401Y5634369D01*
X18573118Y5129235D01*
X19030392Y4771891D01*
X19589608Y4616739D01*
X19823000Y4711981D01*
X19823000Y5973000D01*
X20077000Y5973000D01*
X20077000Y4711981D01*
X20310392Y4616739D01*
X20869608Y4771891D01*
X21326882Y5129235D01*
X21612599Y5634369D01*
X21633546Y5744366D01*
X21576905Y5973000D01*
X20077000Y5973000D01*
X19823000Y5973000D01*
X18323095Y5973000D01*
X18266454Y5744366D01*
X13105929Y5744366D01*
X13024810Y5763802D01*
X12778463Y5724671D01*
X12732619Y5705682D01*
X12713264Y5588513D01*
X12086736Y5588513D01*
X12067381Y5705682D01*
X11824810Y5763802D01*
X11578463Y5724671D01*
X11532619Y5705682D01*
X11513264Y5588513D01*
X3630859Y5588513D01*
X3631161Y5934375D01*
X3489723Y6276680D01*
X3311081Y6455634D01*
X18266454Y6455634D01*
X18323095Y6227000D01*
X19823000Y6227000D01*
X19823000Y7488019D01*
X20077000Y7488019D01*
X20077000Y6227000D01*
X21576905Y6227000D01*
X21633546Y6455634D01*
X21612599Y6565631D01*
X21326882Y7070765D01*
X20869608Y7428109D01*
X20310392Y7583261D01*
X20077000Y7488019D01*
X19823000Y7488019D01*
X19589608Y7583261D01*
X19030392Y7428109D01*
X18573118Y7070765D01*
X18287401Y6565631D01*
X18266454Y6455634D01*
X3311081Y6455634D01*
X3228057Y6538803D01*
X2886000Y6680838D01*
X2515625Y6681161D01*
X2173320Y6539723D01*
X1911197Y6278057D01*
X1769162Y5936000D01*
X1768839Y5565625D01*
X627000Y5565625D01*
X627000Y8565399D01*
X13639114Y8565399D01*
X13750167Y8296629D01*
X13955621Y8090816D01*
X14224197Y7979293D01*
X14515007Y7979040D01*
X14783777Y8090093D01*
X14989590Y8295547D01*
X15101113Y8564123D01*
X15101282Y8758914D01*
X15996185Y9653816D01*
X16132968Y9858527D01*
X16141217Y9900000D01*
X18185088Y9900000D01*
X18297822Y9333246D01*
X18618863Y8852775D01*
X19099334Y8531734D01*
X19666088Y8419000D01*
X20233912Y8419000D01*
X20800666Y8531734D01*
X21281137Y8852775D01*
X21602178Y9333246D01*
X21714912Y9900000D01*
X21602178Y10466754D01*
X21281137Y10947225D01*
X20800666Y11268266D01*
X20233912Y11381000D01*
X19666088Y11381000D01*
X19099334Y11268266D01*
X18618863Y10947225D01*
X18297822Y10466754D01*
X18185088Y9900000D01*
X16141217Y9900000D01*
X16181000Y10100000D01*
X16181000Y12063437D01*
X16280873Y12303957D01*
X16281126Y12594767D01*
X16181000Y12837092D01*
X16181000Y13715000D01*
X18185088Y13715000D01*
X18297822Y13148246D01*
X18618863Y12667775D01*
X19099334Y12346734D01*
X19666088Y12234000D01*
X20233912Y12234000D01*
X20800666Y12346734D01*
X21281137Y12667775D01*
X21602178Y13148246D01*
X21714912Y13715000D01*
X21602178Y14281754D01*
X21281137Y14762225D01*
X20800666Y15083266D01*
X20233912Y15196000D01*
X19666088Y15196000D01*
X19099334Y15083266D01*
X18618863Y14762225D01*
X18297822Y14281754D01*
X18185088Y13715000D01*
X16181000Y13715000D01*
X16181000Y14113437D01*
X16280873Y14353957D01*
X16281126Y14644767D01*
X16170073Y14913537D01*
X15964619Y15119350D01*
X15696043Y15230873D01*
X15405233Y15231126D01*
X15136463Y15120073D01*
X14930650Y14914619D01*
X14819127Y14646043D01*
X14818874Y14355233D01*
X14919000Y14112908D01*
X14919000Y12836563D01*
X14819127Y12596043D01*
X14818874Y12305233D01*
X14919000Y12062908D01*
X14919000Y10361369D01*
X13924056Y9366424D01*
X13787272Y9161713D01*
X13787121Y9160953D01*
X13750890Y9124785D01*
X13639367Y8856209D01*
X13639114Y8565399D01*
X627000Y8565399D01*
X627000Y10065625D01*
X1768839Y10065625D01*
X1910277Y9723320D01*
X2171943Y9461197D01*
X2514000Y9319162D01*
X2884375Y9318839D01*
X3226680Y9460277D01*
X3488803Y9721943D01*
X3630838Y10064000D01*
X3631161Y10434375D01*
X3489723Y10776680D01*
X3228057Y11038803D01*
X2886000Y11180838D01*
X2515625Y11181161D01*
X2173320Y11039723D01*
X1911197Y10778057D01*
X1769162Y10436000D01*
X1768839Y10065625D01*
X627000Y10065625D01*
X627000Y13565139D01*
X813297Y13565139D01*
X983999Y13213605D01*
X1289651Y12949777D01*
X1673000Y12823000D01*
X2623000Y12823000D01*
X2623000Y13723000D01*
X2877000Y13723000D01*
X2877000Y12823000D01*
X3827000Y12823000D01*
X4210349Y12949777D01*
X4516001Y13213605D01*
X4686703Y13565139D01*
X4624064Y13723000D01*
X2877000Y13723000D01*
X2623000Y13723000D01*
X875936Y13723000D01*
X813297Y13565139D01*
X627000Y13565139D01*
X627000Y14134861D01*
X813297Y14134861D01*
X875936Y13977000D01*
X2623000Y13977000D01*
X2623000Y14877000D01*
X2877000Y14877000D01*
X2877000Y13977000D01*
X4624064Y13977000D01*
X4686703Y14134861D01*
X4516001Y14486395D01*
X4210349Y14750223D01*
X3827000Y14877000D01*
X2877000Y14877000D01*
X2623000Y14877000D01*
X1673000Y14877000D01*
X1289651Y14750223D01*
X983999Y14486395D01*
X813297Y14134861D01*
X627000Y14134861D01*
X627000Y15373000D01*
X24373000Y15373000D01*
X24373000Y627000D01*
M02*
