M48
;DRILL file {KiCad 4.0.5} date Saturday 15 April 2017 18:44:50
;FORMAT={3:3/ absolute / metric / keep zeros}
FMAT,2
METRIC,TZ
T1C0.200
T2C0.300
T3C0.500
T4C0.700
T5C1.200
T6C1.100
%
G90
G05
M71
T1
X011800Y005125
X011800Y003925
X012400Y004525
X013000Y005125
X013000Y003925
T2
X007550Y010500
X007700Y006202
X009450Y003100
X009800Y009250
X010550Y006500
X011074Y000783
X013550Y009081
X014300Y014250
X014370Y008710
X015550Y014500
X015550Y012450
T3
X007050Y011500
T5
X019950Y013715
X019950Y009900
X019950Y006100
X019950Y002285
T6
X002700Y010250
X002700Y005750
T4
X001850Y013850G85X003650Y013850
G05
X001850Y002150G85X003650Y002150
G05
T0
M30
