G04 #@! TF.FileFunction,Legend,Top*
%FSLAX46Y46*%
G04 Gerber Fmt 4.6, Leading zero omitted, Abs format (unit mm)*
G04 Created by KiCad (PCBNEW 4.0.5) date Saturday 15 April 2017 18:44:44*
%MOMM*%
%LPD*%
G01*
G04 APERTURE LIST*
%ADD10C,0.100000*%
%ADD11C,0.150000*%
%ADD12C,0.200000*%
%ADD13C,0.010000*%
G04 APERTURE END LIST*
D10*
D11*
X4528571Y13478571D02*
X4528571Y14078571D01*
X4871428Y13478571D01*
X4871428Y14078571D01*
X5271428Y14078571D02*
X5385714Y14078571D01*
X5442856Y14050000D01*
X5499999Y13992857D01*
X5528571Y13878571D01*
X5528571Y13678571D01*
X5499999Y13564286D01*
X5442856Y13507143D01*
X5385714Y13478571D01*
X5271428Y13478571D01*
X5214285Y13507143D01*
X5157142Y13564286D01*
X5128571Y13678571D01*
X5128571Y13878571D01*
X5157142Y13992857D01*
X5214285Y14050000D01*
X5271428Y14078571D01*
X5728570Y14078571D02*
X5871427Y13478571D01*
X5985713Y13907143D01*
X6099999Y13478571D01*
X6242856Y14078571D01*
X6442856Y13650000D02*
X6728570Y13650000D01*
X6385713Y13478571D02*
X6585713Y14078571D01*
X6785713Y13478571D01*
X6985713Y13792857D02*
X7185713Y13792857D01*
X7271427Y13478571D02*
X6985713Y13478571D01*
X6985713Y14078571D01*
X7271427Y14078571D01*
X7642856Y14078571D02*
X7699999Y14078571D01*
X7757142Y14050000D01*
X7785713Y14021429D01*
X7814284Y13964286D01*
X7842856Y13850000D01*
X7842856Y13707143D01*
X7814284Y13592857D01*
X7785713Y13535714D01*
X7757142Y13507143D01*
X7699999Y13478571D01*
X7642856Y13478571D01*
X7585713Y13507143D01*
X7557142Y13535714D01*
X7528570Y13592857D01*
X7499999Y13707143D01*
X7499999Y13850000D01*
X7528570Y13964286D01*
X7557142Y14021429D01*
X7585713Y14050000D01*
X7642856Y14078571D01*
X8214285Y14078571D02*
X8271428Y14078571D01*
X8328571Y14050000D01*
X8357142Y14021429D01*
X8385713Y13964286D01*
X8414285Y13850000D01*
X8414285Y13707143D01*
X8385713Y13592857D01*
X8357142Y13535714D01*
X8328571Y13507143D01*
X8271428Y13478571D01*
X8214285Y13478571D01*
X8157142Y13507143D01*
X8128571Y13535714D01*
X8099999Y13592857D01*
X8071428Y13707143D01*
X8071428Y13850000D01*
X8099999Y13964286D01*
X8128571Y14021429D01*
X8157142Y14050000D01*
X8214285Y14078571D01*
X8985714Y13478571D02*
X8642857Y13478571D01*
X8814285Y13478571D02*
X8814285Y14078571D01*
X8757142Y13992857D01*
X8700000Y13935714D01*
X8642857Y13907143D01*
X9242857Y13707143D02*
X9700000Y13707143D01*
X10100000Y14078571D02*
X10157143Y14078571D01*
X10214286Y14050000D01*
X10242857Y14021429D01*
X10271428Y13964286D01*
X10300000Y13850000D01*
X10300000Y13707143D01*
X10271428Y13592857D01*
X10242857Y13535714D01*
X10214286Y13507143D01*
X10157143Y13478571D01*
X10100000Y13478571D01*
X10042857Y13507143D01*
X10014286Y13535714D01*
X9985714Y13592857D01*
X9957143Y13707143D01*
X9957143Y13850000D01*
X9985714Y13964286D01*
X10014286Y14021429D01*
X10042857Y14050000D01*
X10100000Y14078571D01*
D12*
X13900000Y3050000D02*
X13900000Y2750000D01*
X13900000Y3050000D02*
X14200000Y3050000D01*
D10*
X14100000Y500000D02*
X15100000Y500000D01*
X14100000Y1100000D02*
X15100000Y1100000D01*
X12650000Y700000D02*
X12450000Y800000D01*
X12450000Y800000D02*
X12650000Y900000D01*
X13050000Y1100000D02*
X12050000Y1100000D01*
X13050000Y500000D02*
X12050000Y500000D01*
X7050000Y3700000D02*
X8050000Y3700000D01*
X7050000Y4300000D02*
X8050000Y4300000D01*
X6950000Y5950000D02*
X7950000Y5950000D01*
X6950000Y6550000D02*
X7950000Y6550000D01*
X6950000Y9450000D02*
X7950000Y9450000D01*
X6950000Y10050000D02*
X7950000Y10050000D01*
D11*
X7050000Y1300000D02*
X6050000Y1300000D01*
X6050000Y2700000D02*
X6150000Y2700000D01*
X9050000Y2700000D02*
X8950000Y2700000D01*
X7050000Y1300000D02*
X6050000Y1300000D01*
X6050000Y1300000D02*
X6050000Y2700000D01*
X8050000Y2700000D02*
X7050000Y2700000D01*
X9050000Y1300000D02*
X9050000Y2700000D01*
X9050000Y1300000D02*
X8050000Y1300000D01*
D10*
X6950000Y6700000D02*
X7950000Y6700000D01*
X6950000Y7300000D02*
X7950000Y7300000D01*
X7950000Y9300000D02*
X6950000Y9300000D01*
X7950000Y8700000D02*
X6950000Y8700000D01*
X12600000Y8450000D02*
X11600000Y8450000D01*
X12600000Y7850000D02*
X11600000Y7850000D01*
D11*
X13000000Y2400000D02*
X11400000Y2400000D01*
X13000000Y1400000D02*
X11400000Y1400000D01*
X14500000Y1850000D02*
X14500000Y3850000D01*
X15900000Y3850000D02*
X15900000Y1850000D01*
D10*
X10150000Y1100000D02*
X10150000Y2100000D01*
X9550000Y1100000D02*
X9550000Y2100000D01*
X13550000Y7500000D02*
X12550000Y7500000D01*
X13550000Y6900000D02*
X12550000Y6900000D01*
X14250000Y8050000D02*
X14050000Y8150000D01*
X14050000Y8150000D02*
X14250000Y8250000D01*
X14650000Y8450000D02*
X13650000Y8450000D01*
X14650000Y7850000D02*
X13650000Y7850000D01*
X11650000Y14900000D02*
X12650000Y14900000D01*
X11650000Y15500000D02*
X12650000Y15500000D01*
X9500000Y10000000D02*
X9500000Y9000000D01*
X10100000Y10000000D02*
X10100000Y9000000D01*
X14250000Y15100000D02*
X14050000Y15200000D01*
X14050000Y15200000D02*
X14250000Y15300000D01*
X14650000Y15500000D02*
X13650000Y15500000D01*
X14650000Y14900000D02*
X13650000Y14900000D01*
X5800000Y1900000D02*
X5800000Y2900000D01*
X5200000Y1900000D02*
X5200000Y2900000D01*
X5000000Y900000D02*
X4800000Y1000000D01*
X4800000Y1000000D02*
X5000000Y1100000D01*
X5400000Y1300000D02*
X4400000Y1300000D01*
X5400000Y700000D02*
X4400000Y700000D01*
X10250000Y5400000D02*
X10250000Y6400000D01*
X9650000Y5400000D02*
X9650000Y6400000D01*
X9550000Y4200000D02*
X9550000Y3200000D01*
X10150000Y4200000D02*
X10150000Y3200000D01*
D11*
X4000000Y12100000D02*
X4000000Y13000000D01*
X4000000Y9600000D02*
X4000000Y10900000D01*
X4000000Y7600000D02*
X4000000Y8400000D01*
X4000000Y5100000D02*
X4000000Y6400000D01*
X4000000Y3000000D02*
X4000000Y3800000D01*
X-15200000Y1800000D02*
X900000Y1800000D01*
X-15200000Y1800000D02*
X-15200000Y14200000D01*
X-15200000Y14200000D02*
X900000Y14200000D01*
X15212652Y13210140D02*
X15566205Y12856587D01*
X15566205Y12856587D02*
X15141941Y12856587D01*
X15141941Y12856587D02*
X15141941Y13280851D01*
X15141941Y13280851D02*
X15212652Y13210140D01*
X10262905Y12220191D02*
X9767930Y11725216D01*
X9767930Y11725216D02*
X10262905Y11230241D01*
X13091332Y14058668D02*
X12596357Y14553643D01*
X12596357Y14553643D02*
X12101382Y14058668D01*
X14929809Y11230241D02*
X15424784Y11725216D01*
X15424784Y11725216D02*
X14929809Y12220191D01*
X13091332Y9391764D02*
X12596357Y8896789D01*
X12596357Y8896789D02*
X12101382Y9391764D01*
X23550000Y300000D02*
X24850000Y300000D01*
X24850000Y300000D02*
X24850000Y15700000D01*
X24850000Y15700000D02*
X23550000Y15700000D01*
X16350000Y300000D02*
X16350000Y15700000D01*
X16350000Y15700000D02*
X23550000Y15700000D01*
X23550000Y15700000D02*
X23550000Y300000D01*
X23550000Y300000D02*
X16350000Y300000D01*
X14600000Y3725000D02*
X14900000Y3425000D01*
X14900000Y4025000D02*
X14600000Y3725000D01*
X14900000Y3425000D02*
X14900000Y4025000D01*
X11400000Y6025000D02*
X10900000Y6025000D01*
X10900000Y6025000D02*
X10900000Y5525000D01*
X13900000Y5525000D02*
X13900000Y6025000D01*
X13900000Y6025000D02*
X13400000Y6025000D01*
X13400000Y3025000D02*
X13900000Y3025000D01*
X13900000Y3025000D02*
X13900000Y3525000D01*
X11400000Y3025000D02*
X10900000Y3025000D01*
X10900000Y3025000D02*
X10900000Y3525000D01*
D13*
G36*
X5198666Y14660565D02*
X5198667Y14899991D01*
X5198667Y15139417D01*
X5341542Y15139417D01*
X5341542Y14446208D01*
X5196064Y14446208D01*
X4959240Y14682989D01*
X4722416Y14919769D01*
X4722417Y14682989D01*
X4722417Y14446208D01*
X4579542Y14446208D01*
X4579542Y15139417D01*
X4719728Y15139417D01*
X5198666Y14660565D01*
X5198666Y14660565D01*
G37*
X5198666Y14660565D02*
X5198667Y14899991D01*
X5198667Y15139417D01*
X5341542Y15139417D01*
X5341542Y14446208D01*
X5196064Y14446208D01*
X4959240Y14682989D01*
X4722416Y14919769D01*
X4722417Y14682989D01*
X4722417Y14446208D01*
X4579542Y14446208D01*
X4579542Y15139417D01*
X4719728Y15139417D01*
X5198666Y14660565D01*
G36*
X5746168Y15138631D02*
X5770167Y15138471D01*
X5825591Y15138047D01*
X5871448Y15137634D01*
X5908752Y15137179D01*
X5938519Y15136628D01*
X5961764Y15135930D01*
X5979502Y15135029D01*
X5992749Y15133874D01*
X6002519Y15132412D01*
X6009829Y15130589D01*
X6015694Y15128351D01*
X6021128Y15125647D01*
X6021759Y15125311D01*
X6043621Y15110219D01*
X6064891Y15089801D01*
X6082566Y15067354D01*
X6093581Y15046367D01*
X6095403Y15039163D01*
X6096915Y15028213D01*
X6098141Y15012638D01*
X6099107Y14991561D01*
X6099836Y14964100D01*
X6100355Y14929378D01*
X6100687Y14886515D01*
X6100858Y14834631D01*
X6100896Y14787521D01*
X6100896Y14549396D01*
X6088546Y14524320D01*
X6072911Y14500309D01*
X6051779Y14478260D01*
X6028294Y14461024D01*
X6009314Y14452432D01*
X5999551Y14450757D01*
X5982109Y14449368D01*
X5956520Y14448253D01*
X5922319Y14447402D01*
X5879039Y14446804D01*
X5826211Y14446448D01*
X5763371Y14446322D01*
X5748386Y14446325D01*
X5691282Y14446379D01*
X5643774Y14446505D01*
X5604875Y14446740D01*
X5573599Y14447121D01*
X5548960Y14447684D01*
X5529969Y14448468D01*
X5515640Y14449509D01*
X5504986Y14450844D01*
X5497021Y14452509D01*
X5490758Y14454542D01*
X5487062Y14456109D01*
X5466040Y14469488D01*
X5444918Y14489125D01*
X5426917Y14511542D01*
X5415256Y14533261D01*
X5415002Y14533966D01*
X5413190Y14541131D01*
X5411685Y14552026D01*
X5410462Y14567524D01*
X5409497Y14588501D01*
X5408766Y14615831D01*
X5408244Y14650389D01*
X5407907Y14693048D01*
X5407730Y14744683D01*
X5407723Y14753053D01*
X5548521Y14753053D01*
X5548564Y14713804D01*
X5549250Y14682769D01*
X5550758Y14658762D01*
X5553264Y14640601D01*
X5556948Y14627103D01*
X5561988Y14617083D01*
X5568561Y14609359D01*
X5576847Y14602747D01*
X5579126Y14601183D01*
X5584552Y14597712D01*
X5590173Y14594978D01*
X5597247Y14592892D01*
X5607035Y14591367D01*
X5620798Y14590316D01*
X5639794Y14589649D01*
X5665285Y14589281D01*
X5698529Y14589121D01*
X5740787Y14589084D01*
X5752691Y14589083D01*
X5799561Y14589177D01*
X5836979Y14589490D01*
X5866073Y14590075D01*
X5887975Y14590981D01*
X5903813Y14592260D01*
X5914716Y14593963D01*
X5921816Y14596140D01*
X5923102Y14596751D01*
X5936941Y14606898D01*
X5947974Y14619240D01*
X5950862Y14624148D01*
X5953140Y14630196D01*
X5954878Y14638614D01*
X5956150Y14650633D01*
X5957026Y14667480D01*
X5957579Y14690387D01*
X5957881Y14720581D01*
X5958003Y14759294D01*
X5958021Y14791102D01*
X5958151Y14843142D01*
X5957898Y14885589D01*
X5956296Y14919416D01*
X5952380Y14945597D01*
X5945183Y14965106D01*
X5933740Y14978916D01*
X5917085Y14988002D01*
X5894253Y14993336D01*
X5864278Y14995894D01*
X5826193Y14996647D01*
X5779034Y14996571D01*
X5754292Y14996525D01*
X5707427Y14996432D01*
X5669893Y14996008D01*
X5640440Y14995036D01*
X5617816Y14993298D01*
X5600770Y14990579D01*
X5588050Y14986661D01*
X5578406Y14981327D01*
X5570586Y14974359D01*
X5563339Y14965542D01*
X5561522Y14963093D01*
X5558274Y14958155D01*
X5555716Y14952361D01*
X5553748Y14944427D01*
X5552268Y14933068D01*
X5551178Y14916998D01*
X5550377Y14894934D01*
X5549764Y14865590D01*
X5549240Y14827681D01*
X5548942Y14801697D01*
X5548521Y14753053D01*
X5407723Y14753053D01*
X5407687Y14795458D01*
X5407687Y15036229D01*
X5423562Y15064913D01*
X5445278Y15094426D01*
X5473274Y15117436D01*
X5505228Y15132153D01*
X5513521Y15134318D01*
X5526916Y15135989D01*
X5550321Y15137277D01*
X5583843Y15138184D01*
X5627587Y15138711D01*
X5681660Y15138859D01*
X5746168Y15138631D01*
X5746168Y15138631D01*
G37*
X5746168Y15138631D02*
X5770167Y15138471D01*
X5825591Y15138047D01*
X5871448Y15137634D01*
X5908752Y15137179D01*
X5938519Y15136628D01*
X5961764Y15135930D01*
X5979502Y15135029D01*
X5992749Y15133874D01*
X6002519Y15132412D01*
X6009829Y15130589D01*
X6015694Y15128351D01*
X6021128Y15125647D01*
X6021759Y15125311D01*
X6043621Y15110219D01*
X6064891Y15089801D01*
X6082566Y15067354D01*
X6093581Y15046367D01*
X6095403Y15039163D01*
X6096915Y15028213D01*
X6098141Y15012638D01*
X6099107Y14991561D01*
X6099836Y14964100D01*
X6100355Y14929378D01*
X6100687Y14886515D01*
X6100858Y14834631D01*
X6100896Y14787521D01*
X6100896Y14549396D01*
X6088546Y14524320D01*
X6072911Y14500309D01*
X6051779Y14478260D01*
X6028294Y14461024D01*
X6009314Y14452432D01*
X5999551Y14450757D01*
X5982109Y14449368D01*
X5956520Y14448253D01*
X5922319Y14447402D01*
X5879039Y14446804D01*
X5826211Y14446448D01*
X5763371Y14446322D01*
X5748386Y14446325D01*
X5691282Y14446379D01*
X5643774Y14446505D01*
X5604875Y14446740D01*
X5573599Y14447121D01*
X5548960Y14447684D01*
X5529969Y14448468D01*
X5515640Y14449509D01*
X5504986Y14450844D01*
X5497021Y14452509D01*
X5490758Y14454542D01*
X5487062Y14456109D01*
X5466040Y14469488D01*
X5444918Y14489125D01*
X5426917Y14511542D01*
X5415256Y14533261D01*
X5415002Y14533966D01*
X5413190Y14541131D01*
X5411685Y14552026D01*
X5410462Y14567524D01*
X5409497Y14588501D01*
X5408766Y14615831D01*
X5408244Y14650389D01*
X5407907Y14693048D01*
X5407730Y14744683D01*
X5407723Y14753053D01*
X5548521Y14753053D01*
X5548564Y14713804D01*
X5549250Y14682769D01*
X5550758Y14658762D01*
X5553264Y14640601D01*
X5556948Y14627103D01*
X5561988Y14617083D01*
X5568561Y14609359D01*
X5576847Y14602747D01*
X5579126Y14601183D01*
X5584552Y14597712D01*
X5590173Y14594978D01*
X5597247Y14592892D01*
X5607035Y14591367D01*
X5620798Y14590316D01*
X5639794Y14589649D01*
X5665285Y14589281D01*
X5698529Y14589121D01*
X5740787Y14589084D01*
X5752691Y14589083D01*
X5799561Y14589177D01*
X5836979Y14589490D01*
X5866073Y14590075D01*
X5887975Y14590981D01*
X5903813Y14592260D01*
X5914716Y14593963D01*
X5921816Y14596140D01*
X5923102Y14596751D01*
X5936941Y14606898D01*
X5947974Y14619240D01*
X5950862Y14624148D01*
X5953140Y14630196D01*
X5954878Y14638614D01*
X5956150Y14650633D01*
X5957026Y14667480D01*
X5957579Y14690387D01*
X5957881Y14720581D01*
X5958003Y14759294D01*
X5958021Y14791102D01*
X5958151Y14843142D01*
X5957898Y14885589D01*
X5956296Y14919416D01*
X5952380Y14945597D01*
X5945183Y14965106D01*
X5933740Y14978916D01*
X5917085Y14988002D01*
X5894253Y14993336D01*
X5864278Y14995894D01*
X5826193Y14996647D01*
X5779034Y14996571D01*
X5754292Y14996525D01*
X5707427Y14996432D01*
X5669893Y14996008D01*
X5640440Y14995036D01*
X5617816Y14993298D01*
X5600770Y14990579D01*
X5588050Y14986661D01*
X5578406Y14981327D01*
X5570586Y14974359D01*
X5563339Y14965542D01*
X5561522Y14963093D01*
X5558274Y14958155D01*
X5555716Y14952361D01*
X5553748Y14944427D01*
X5552268Y14933068D01*
X5551178Y14916998D01*
X5550377Y14894934D01*
X5549764Y14865590D01*
X5549240Y14827681D01*
X5548942Y14801697D01*
X5548521Y14753053D01*
X5407723Y14753053D01*
X5407687Y14795458D01*
X5407687Y15036229D01*
X5423562Y15064913D01*
X5445278Y15094426D01*
X5473274Y15117436D01*
X5505228Y15132153D01*
X5513521Y15134318D01*
X5526916Y15135989D01*
X5550321Y15137277D01*
X5583843Y15138184D01*
X5627587Y15138711D01*
X5681660Y15138859D01*
X5746168Y15138631D01*
G36*
X6800719Y14935688D02*
X6903906Y14729367D01*
X7006446Y14934392D01*
X7108985Y15139417D01*
X7180409Y15139417D01*
X7206519Y15139232D01*
X7228350Y15138724D01*
X7243972Y15137965D01*
X7251457Y15137028D01*
X7251833Y15136755D01*
X7249523Y15131220D01*
X7242897Y15117217D01*
X7232411Y15095649D01*
X7218523Y15067424D01*
X7201687Y15033446D01*
X7182360Y14994622D01*
X7160999Y14951855D01*
X7138059Y14906053D01*
X7113998Y14858121D01*
X7089272Y14808964D01*
X7064336Y14759487D01*
X7039647Y14710597D01*
X7015661Y14663198D01*
X6992836Y14618197D01*
X6971626Y14576499D01*
X6952488Y14539009D01*
X6935880Y14506633D01*
X6922256Y14480276D01*
X6912073Y14460844D01*
X6905787Y14449243D01*
X6903866Y14446208D01*
X6900733Y14450788D01*
X6893407Y14463880D01*
X6882392Y14484511D01*
X6868193Y14511711D01*
X6851316Y14544508D01*
X6832264Y14581930D01*
X6811543Y14623005D01*
X6798713Y14648610D01*
X6697554Y14851012D01*
X6596326Y14648610D01*
X6574843Y14605835D01*
X6554732Y14566139D01*
X6536499Y14530492D01*
X6520648Y14499867D01*
X6507685Y14475235D01*
X6498114Y14457567D01*
X6492440Y14447835D01*
X6491123Y14446208D01*
X6488166Y14450822D01*
X6480878Y14464164D01*
X6469641Y14485488D01*
X6454839Y14514045D01*
X6436853Y14549089D01*
X6416066Y14589873D01*
X6392861Y14635648D01*
X6367619Y14685668D01*
X6340722Y14739185D01*
X6316512Y14787532D01*
X6288527Y14843581D01*
X6261971Y14896907D01*
X6237219Y14946749D01*
X6214646Y14992345D01*
X6194625Y15032935D01*
X6177532Y15067759D01*
X6163741Y15096054D01*
X6153626Y15117060D01*
X6147563Y15130017D01*
X6145875Y15134136D01*
X6150980Y15136373D01*
X6165571Y15138053D01*
X6188560Y15139094D01*
X6216021Y15139417D01*
X6286168Y15139417D01*
X6388651Y14934369D01*
X6491133Y14729321D01*
X6594332Y14935665D01*
X6697531Y15142008D01*
X6800719Y14935688D01*
X6800719Y14935688D01*
G37*
X6800719Y14935688D02*
X6903906Y14729367D01*
X7006446Y14934392D01*
X7108985Y15139417D01*
X7180409Y15139417D01*
X7206519Y15139232D01*
X7228350Y15138724D01*
X7243972Y15137965D01*
X7251457Y15137028D01*
X7251833Y15136755D01*
X7249523Y15131220D01*
X7242897Y15117217D01*
X7232411Y15095649D01*
X7218523Y15067424D01*
X7201687Y15033446D01*
X7182360Y14994622D01*
X7160999Y14951855D01*
X7138059Y14906053D01*
X7113998Y14858121D01*
X7089272Y14808964D01*
X7064336Y14759487D01*
X7039647Y14710597D01*
X7015661Y14663198D01*
X6992836Y14618197D01*
X6971626Y14576499D01*
X6952488Y14539009D01*
X6935880Y14506633D01*
X6922256Y14480276D01*
X6912073Y14460844D01*
X6905787Y14449243D01*
X6903866Y14446208D01*
X6900733Y14450788D01*
X6893407Y14463880D01*
X6882392Y14484511D01*
X6868193Y14511711D01*
X6851316Y14544508D01*
X6832264Y14581930D01*
X6811543Y14623005D01*
X6798713Y14648610D01*
X6697554Y14851012D01*
X6596326Y14648610D01*
X6574843Y14605835D01*
X6554732Y14566139D01*
X6536499Y14530492D01*
X6520648Y14499867D01*
X6507685Y14475235D01*
X6498114Y14457567D01*
X6492440Y14447835D01*
X6491123Y14446208D01*
X6488166Y14450822D01*
X6480878Y14464164D01*
X6469641Y14485488D01*
X6454839Y14514045D01*
X6436853Y14549089D01*
X6416066Y14589873D01*
X6392861Y14635648D01*
X6367619Y14685668D01*
X6340722Y14739185D01*
X6316512Y14787532D01*
X6288527Y14843581D01*
X6261971Y14896907D01*
X6237219Y14946749D01*
X6214646Y14992345D01*
X6194625Y15032935D01*
X6177532Y15067759D01*
X6163741Y15096054D01*
X6153626Y15117060D01*
X6147563Y15130017D01*
X6145875Y15134136D01*
X6150980Y15136373D01*
X6165571Y15138053D01*
X6188560Y15139094D01*
X6216021Y15139417D01*
X6286168Y15139417D01*
X6388651Y14934369D01*
X6491133Y14729321D01*
X6594332Y14935665D01*
X6697531Y15142008D01*
X6800719Y14935688D01*
G36*
X7458219Y15134831D02*
X7465141Y15121679D01*
X7475872Y15100865D01*
X7489957Y15073295D01*
X7506943Y15039877D01*
X7526374Y15001515D01*
X7547796Y14959115D01*
X7570754Y14913583D01*
X7594794Y14865826D01*
X7619460Y14816749D01*
X7644298Y14767258D01*
X7668853Y14718259D01*
X7692671Y14670657D01*
X7715297Y14625359D01*
X7736276Y14583271D01*
X7755153Y14545299D01*
X7771474Y14512348D01*
X7784784Y14485324D01*
X7794628Y14465134D01*
X7800552Y14452682D01*
X7802167Y14448870D01*
X7797193Y14447907D01*
X7783545Y14447099D01*
X7763129Y14446516D01*
X7737855Y14446227D01*
X7729219Y14446208D01*
X7656271Y14446208D01*
X7622349Y14515000D01*
X7285855Y14515000D01*
X7268893Y14480604D01*
X7251932Y14446208D01*
X7180445Y14446208D01*
X7154322Y14446394D01*
X7132479Y14446901D01*
X7116842Y14447659D01*
X7109339Y14448595D01*
X7108958Y14448870D01*
X7111260Y14454164D01*
X7117861Y14467954D01*
X7128309Y14489333D01*
X7142146Y14517396D01*
X7158920Y14551237D01*
X7178175Y14589951D01*
X7199457Y14632630D01*
X7212070Y14657875D01*
X7357611Y14657875D01*
X7452889Y14657875D01*
X7483296Y14658084D01*
X7509660Y14658664D01*
X7530316Y14659545D01*
X7543602Y14660658D01*
X7547886Y14661844D01*
X7545519Y14667588D01*
X7539088Y14681256D01*
X7529327Y14701342D01*
X7516970Y14726336D01*
X7502750Y14754731D01*
X7500922Y14758358D01*
X7454238Y14850903D01*
X7405924Y14754389D01*
X7357611Y14657875D01*
X7212070Y14657875D01*
X7222310Y14678370D01*
X7246281Y14726264D01*
X7270914Y14775407D01*
X7295755Y14824892D01*
X7320349Y14873814D01*
X7344242Y14921267D01*
X7366978Y14966344D01*
X7388103Y15008141D01*
X7407162Y15045750D01*
X7423701Y15078267D01*
X7437265Y15104785D01*
X7447399Y15124398D01*
X7453649Y15136201D01*
X7455562Y15139417D01*
X7458219Y15134831D01*
X7458219Y15134831D01*
G37*
X7458219Y15134831D02*
X7465141Y15121679D01*
X7475872Y15100865D01*
X7489957Y15073295D01*
X7506943Y15039877D01*
X7526374Y15001515D01*
X7547796Y14959115D01*
X7570754Y14913583D01*
X7594794Y14865826D01*
X7619460Y14816749D01*
X7644298Y14767258D01*
X7668853Y14718259D01*
X7692671Y14670657D01*
X7715297Y14625359D01*
X7736276Y14583271D01*
X7755153Y14545299D01*
X7771474Y14512348D01*
X7784784Y14485324D01*
X7794628Y14465134D01*
X7800552Y14452682D01*
X7802167Y14448870D01*
X7797193Y14447907D01*
X7783545Y14447099D01*
X7763129Y14446516D01*
X7737855Y14446227D01*
X7729219Y14446208D01*
X7656271Y14446208D01*
X7622349Y14515000D01*
X7285855Y14515000D01*
X7268893Y14480604D01*
X7251932Y14446208D01*
X7180445Y14446208D01*
X7154322Y14446394D01*
X7132479Y14446901D01*
X7116842Y14447659D01*
X7109339Y14448595D01*
X7108958Y14448870D01*
X7111260Y14454164D01*
X7117861Y14467954D01*
X7128309Y14489333D01*
X7142146Y14517396D01*
X7158920Y14551237D01*
X7178175Y14589951D01*
X7199457Y14632630D01*
X7212070Y14657875D01*
X7357611Y14657875D01*
X7452889Y14657875D01*
X7483296Y14658084D01*
X7509660Y14658664D01*
X7530316Y14659545D01*
X7543602Y14660658D01*
X7547886Y14661844D01*
X7545519Y14667588D01*
X7539088Y14681256D01*
X7529327Y14701342D01*
X7516970Y14726336D01*
X7502750Y14754731D01*
X7500922Y14758358D01*
X7454238Y14850903D01*
X7405924Y14754389D01*
X7357611Y14657875D01*
X7212070Y14657875D01*
X7222310Y14678370D01*
X7246281Y14726264D01*
X7270914Y14775407D01*
X7295755Y14824892D01*
X7320349Y14873814D01*
X7344242Y14921267D01*
X7366978Y14966344D01*
X7388103Y15008141D01*
X7407162Y15045750D01*
X7423701Y15078267D01*
X7437265Y15104785D01*
X7447399Y15124398D01*
X7453649Y15136201D01*
X7455562Y15139417D01*
X7458219Y15134831D01*
G36*
X8465837Y15528847D02*
X8535815Y15519391D01*
X8601889Y15500919D01*
X8663358Y15473820D01*
X8719519Y15438479D01*
X8769671Y15395283D01*
X8813113Y15344618D01*
X8849143Y15286872D01*
X8855801Y15273676D01*
X8874685Y15229799D01*
X8888715Y15185137D01*
X8898444Y15137148D01*
X8904427Y15083292D01*
X8906701Y15040198D01*
X8909607Y14954208D01*
X8049882Y14954208D01*
X8053642Y14926427D01*
X8066992Y14861039D01*
X8088318Y14800786D01*
X8117038Y14746346D01*
X8152568Y14698394D01*
X8194326Y14657607D01*
X8241730Y14624660D01*
X8294197Y14600231D01*
X8347208Y14585712D01*
X8383828Y14581135D01*
X8425674Y14579646D01*
X8468787Y14581122D01*
X8509209Y14585439D01*
X8540354Y14591744D01*
X8584722Y14607010D01*
X8629221Y14628272D01*
X8671530Y14654023D01*
X8709331Y14682752D01*
X8740304Y14712951D01*
X8754667Y14731178D01*
X8764805Y14745249D01*
X8772602Y14755030D01*
X8775986Y14758169D01*
X8781079Y14755058D01*
X8792139Y14746566D01*
X8807223Y14734336D01*
X8824384Y14720017D01*
X8841678Y14705252D01*
X8857161Y14691690D01*
X8868887Y14680975D01*
X8874912Y14674754D01*
X8875290Y14674124D01*
X8872956Y14667339D01*
X8864601Y14654841D01*
X8851717Y14638366D01*
X8835801Y14619650D01*
X8818346Y14600432D01*
X8800847Y14582447D01*
X8784797Y14567433D01*
X8779979Y14563348D01*
X8727339Y14526801D01*
X8667314Y14497098D01*
X8600966Y14474711D01*
X8557474Y14464778D01*
X8521140Y14459463D01*
X8479279Y14455859D01*
X8435795Y14454119D01*
X8394595Y14454393D01*
X8359583Y14456833D01*
X8357792Y14457049D01*
X8284736Y14470974D01*
X8217084Y14493725D01*
X8155218Y14524807D01*
X8099524Y14563729D01*
X8050383Y14609997D01*
X8008180Y14663120D01*
X7973297Y14722605D01*
X7946119Y14787959D01*
X7927028Y14858690D01*
X7916409Y14934306D01*
X7914644Y15014313D01*
X7915116Y15025646D01*
X7921345Y15082638D01*
X8050875Y15082638D01*
X8056023Y15082397D01*
X8070897Y15082169D01*
X8094635Y15081957D01*
X8126382Y15081765D01*
X8165276Y15081595D01*
X8210460Y15081452D01*
X8261075Y15081339D01*
X8316262Y15081259D01*
X8375163Y15081216D01*
X8411032Y15081208D01*
X8771190Y15081208D01*
X8767804Y15106344D01*
X8754789Y15165119D01*
X8732432Y15219221D01*
X8701147Y15268079D01*
X8661348Y15311120D01*
X8613450Y15347774D01*
X8578190Y15367893D01*
X8529215Y15387356D01*
X8475698Y15399370D01*
X8419987Y15403916D01*
X8364431Y15400975D01*
X8311377Y15390529D01*
X8263175Y15372557D01*
X8258969Y15370476D01*
X8209865Y15339891D01*
X8165126Y15300712D01*
X8125949Y15254444D01*
X8093535Y15202591D01*
X8069082Y15146658D01*
X8061581Y15122701D01*
X8056468Y15104077D01*
X8052684Y15089959D01*
X8050923Y15082949D01*
X8050875Y15082638D01*
X7921345Y15082638D01*
X7923719Y15104350D01*
X7941498Y15177939D01*
X7968405Y15246294D01*
X8004392Y15309297D01*
X8049410Y15366829D01*
X8058196Y15376308D01*
X8111176Y15424579D01*
X8169879Y15464051D01*
X8233845Y15494512D01*
X8302615Y15515755D01*
X8375731Y15527570D01*
X8392656Y15528902D01*
X8465837Y15528847D01*
X8465837Y15528847D01*
G37*
X8465837Y15528847D02*
X8535815Y15519391D01*
X8601889Y15500919D01*
X8663358Y15473820D01*
X8719519Y15438479D01*
X8769671Y15395283D01*
X8813113Y15344618D01*
X8849143Y15286872D01*
X8855801Y15273676D01*
X8874685Y15229799D01*
X8888715Y15185137D01*
X8898444Y15137148D01*
X8904427Y15083292D01*
X8906701Y15040198D01*
X8909607Y14954208D01*
X8049882Y14954208D01*
X8053642Y14926427D01*
X8066992Y14861039D01*
X8088318Y14800786D01*
X8117038Y14746346D01*
X8152568Y14698394D01*
X8194326Y14657607D01*
X8241730Y14624660D01*
X8294197Y14600231D01*
X8347208Y14585712D01*
X8383828Y14581135D01*
X8425674Y14579646D01*
X8468787Y14581122D01*
X8509209Y14585439D01*
X8540354Y14591744D01*
X8584722Y14607010D01*
X8629221Y14628272D01*
X8671530Y14654023D01*
X8709331Y14682752D01*
X8740304Y14712951D01*
X8754667Y14731178D01*
X8764805Y14745249D01*
X8772602Y14755030D01*
X8775986Y14758169D01*
X8781079Y14755058D01*
X8792139Y14746566D01*
X8807223Y14734336D01*
X8824384Y14720017D01*
X8841678Y14705252D01*
X8857161Y14691690D01*
X8868887Y14680975D01*
X8874912Y14674754D01*
X8875290Y14674124D01*
X8872956Y14667339D01*
X8864601Y14654841D01*
X8851717Y14638366D01*
X8835801Y14619650D01*
X8818346Y14600432D01*
X8800847Y14582447D01*
X8784797Y14567433D01*
X8779979Y14563348D01*
X8727339Y14526801D01*
X8667314Y14497098D01*
X8600966Y14474711D01*
X8557474Y14464778D01*
X8521140Y14459463D01*
X8479279Y14455859D01*
X8435795Y14454119D01*
X8394595Y14454393D01*
X8359583Y14456833D01*
X8357792Y14457049D01*
X8284736Y14470974D01*
X8217084Y14493725D01*
X8155218Y14524807D01*
X8099524Y14563729D01*
X8050383Y14609997D01*
X8008180Y14663120D01*
X7973297Y14722605D01*
X7946119Y14787959D01*
X7927028Y14858690D01*
X7916409Y14934306D01*
X7914644Y15014313D01*
X7915116Y15025646D01*
X7921345Y15082638D01*
X8050875Y15082638D01*
X8056023Y15082397D01*
X8070897Y15082169D01*
X8094635Y15081957D01*
X8126382Y15081765D01*
X8165276Y15081595D01*
X8210460Y15081452D01*
X8261075Y15081339D01*
X8316262Y15081259D01*
X8375163Y15081216D01*
X8411032Y15081208D01*
X8771190Y15081208D01*
X8767804Y15106344D01*
X8754789Y15165119D01*
X8732432Y15219221D01*
X8701147Y15268079D01*
X8661348Y15311120D01*
X8613450Y15347774D01*
X8578190Y15367893D01*
X8529215Y15387356D01*
X8475698Y15399370D01*
X8419987Y15403916D01*
X8364431Y15400975D01*
X8311377Y15390529D01*
X8263175Y15372557D01*
X8258969Y15370476D01*
X8209865Y15339891D01*
X8165126Y15300712D01*
X8125949Y15254444D01*
X8093535Y15202591D01*
X8069082Y15146658D01*
X8061581Y15122701D01*
X8056468Y15104077D01*
X8052684Y15089959D01*
X8050923Y15082949D01*
X8050875Y15082638D01*
X7921345Y15082638D01*
X7923719Y15104350D01*
X7941498Y15177939D01*
X7968405Y15246294D01*
X8004392Y15309297D01*
X8049410Y15366829D01*
X8058196Y15376308D01*
X8111176Y15424579D01*
X8169879Y15464051D01*
X8233845Y15494512D01*
X8302615Y15515755D01*
X8375731Y15527570D01*
X8392656Y15528902D01*
X8465837Y15528847D01*
G36*
X10110614Y14830082D02*
X10137396Y14822209D01*
X10161329Y14807486D01*
X10173281Y14797173D01*
X10195278Y14772510D01*
X10208598Y14746593D01*
X10214322Y14716622D01*
X10214323Y14690594D01*
X10207805Y14653248D01*
X10192708Y14622023D01*
X10168844Y14596594D01*
X10154587Y14586578D01*
X10140777Y14578645D01*
X10128613Y14573864D01*
X10114585Y14571453D01*
X10095184Y14570626D01*
X10082875Y14570563D01*
X10059618Y14570907D01*
X10043418Y14572461D01*
X10030753Y14576013D01*
X10018105Y14582346D01*
X10011022Y14586594D01*
X9984530Y14608599D01*
X9969104Y14630074D01*
X9953229Y14657521D01*
X9865866Y14657698D01*
X9778502Y14657875D01*
X9675417Y14554688D01*
X9572331Y14451500D01*
X9272356Y14451500D01*
X9207513Y14451529D01*
X9152451Y14451630D01*
X9106368Y14451824D01*
X9068462Y14452131D01*
X9037931Y14452572D01*
X9013973Y14453168D01*
X8995786Y14453939D01*
X8982568Y14454907D01*
X8973516Y14456093D01*
X8967829Y14457516D01*
X8964705Y14459198D01*
X8964412Y14459469D01*
X8953799Y14475665D01*
X8953698Y14492284D01*
X8959730Y14503730D01*
X8970119Y14517646D01*
X9255181Y14519015D01*
X9540242Y14520385D01*
X9646488Y14626172D01*
X9723081Y14702433D01*
X9999671Y14702433D01*
X10003552Y14676744D01*
X10017718Y14652282D01*
X10026089Y14643233D01*
X10050225Y14624781D01*
X10074278Y14616603D01*
X10099202Y14618441D01*
X10107666Y14621158D01*
X10126945Y14632423D01*
X10145302Y14649717D01*
X10159014Y14669216D01*
X10162674Y14677682D01*
X10166081Y14703938D01*
X10159053Y14729771D01*
X10142860Y14753390D01*
X10119456Y14772631D01*
X10093997Y14781884D01*
X10067923Y14781147D01*
X10042677Y14770421D01*
X10022890Y14753390D01*
X10006108Y14728324D01*
X9999671Y14702433D01*
X9723081Y14702433D01*
X9752735Y14731958D01*
X9950088Y14731958D01*
X9960062Y14754507D01*
X9979191Y14785536D01*
X10005254Y14809548D01*
X10036621Y14825463D01*
X10071660Y14832200D01*
X10077583Y14832354D01*
X10110614Y14830082D01*
X10110614Y14830082D01*
G37*
X10110614Y14830082D02*
X10137396Y14822209D01*
X10161329Y14807486D01*
X10173281Y14797173D01*
X10195278Y14772510D01*
X10208598Y14746593D01*
X10214322Y14716622D01*
X10214323Y14690594D01*
X10207805Y14653248D01*
X10192708Y14622023D01*
X10168844Y14596594D01*
X10154587Y14586578D01*
X10140777Y14578645D01*
X10128613Y14573864D01*
X10114585Y14571453D01*
X10095184Y14570626D01*
X10082875Y14570563D01*
X10059618Y14570907D01*
X10043418Y14572461D01*
X10030753Y14576013D01*
X10018105Y14582346D01*
X10011022Y14586594D01*
X9984530Y14608599D01*
X9969104Y14630074D01*
X9953229Y14657521D01*
X9865866Y14657698D01*
X9778502Y14657875D01*
X9675417Y14554688D01*
X9572331Y14451500D01*
X9272356Y14451500D01*
X9207513Y14451529D01*
X9152451Y14451630D01*
X9106368Y14451824D01*
X9068462Y14452131D01*
X9037931Y14452572D01*
X9013973Y14453168D01*
X8995786Y14453939D01*
X8982568Y14454907D01*
X8973516Y14456093D01*
X8967829Y14457516D01*
X8964705Y14459198D01*
X8964412Y14459469D01*
X8953799Y14475665D01*
X8953698Y14492284D01*
X8959730Y14503730D01*
X8970119Y14517646D01*
X9255181Y14519015D01*
X9540242Y14520385D01*
X9646488Y14626172D01*
X9723081Y14702433D01*
X9999671Y14702433D01*
X10003552Y14676744D01*
X10017718Y14652282D01*
X10026089Y14643233D01*
X10050225Y14624781D01*
X10074278Y14616603D01*
X10099202Y14618441D01*
X10107666Y14621158D01*
X10126945Y14632423D01*
X10145302Y14649717D01*
X10159014Y14669216D01*
X10162674Y14677682D01*
X10166081Y14703938D01*
X10159053Y14729771D01*
X10142860Y14753390D01*
X10119456Y14772631D01*
X10093997Y14781884D01*
X10067923Y14781147D01*
X10042677Y14770421D01*
X10022890Y14753390D01*
X10006108Y14728324D01*
X9999671Y14702433D01*
X9723081Y14702433D01*
X9752735Y14731958D01*
X9950088Y14731958D01*
X9960062Y14754507D01*
X9979191Y14785536D01*
X10005254Y14809548D01*
X10036621Y14825463D01*
X10071660Y14832200D01*
X10077583Y14832354D01*
X10110614Y14830082D01*
G36*
X9478649Y14874212D02*
X9509405Y14862293D01*
X9531742Y14846724D01*
X9552255Y14820762D01*
X9565497Y14789336D01*
X9571085Y14755018D01*
X9568634Y14720382D01*
X9557762Y14688000D01*
X9555945Y14684520D01*
X9534181Y14653929D01*
X9506979Y14632353D01*
X9474085Y14619646D01*
X9436139Y14615658D01*
X9407477Y14618079D01*
X9383675Y14624567D01*
X9381729Y14625414D01*
X9362967Y14637187D01*
X9343630Y14654452D01*
X9326857Y14673938D01*
X9315789Y14692378D01*
X9314682Y14695229D01*
X9309402Y14710374D01*
X9140696Y14711906D01*
X9093476Y14712383D01*
X9055718Y14712907D01*
X9026297Y14713546D01*
X9004092Y14714367D01*
X8987980Y14715434D01*
X8976839Y14716816D01*
X8969545Y14718579D01*
X8964976Y14720789D01*
X8962988Y14722446D01*
X8955187Y14736940D01*
X8954681Y14754316D01*
X8961207Y14770045D01*
X8966037Y14775116D01*
X8970083Y14777859D01*
X8975478Y14780036D01*
X8983392Y14781713D01*
X8994998Y14782954D01*
X9011469Y14783823D01*
X9033977Y14784385D01*
X9063693Y14784704D01*
X9101790Y14784846D01*
X9143127Y14784875D01*
X9308165Y14784875D01*
X9314393Y14802096D01*
X9325145Y14821318D01*
X9342462Y14841403D01*
X9363150Y14859118D01*
X9381729Y14870236D01*
X9411539Y14878697D01*
X9444937Y14879851D01*
X9478649Y14874212D01*
X9478649Y14874212D01*
G37*
X9478649Y14874212D02*
X9509405Y14862293D01*
X9531742Y14846724D01*
X9552255Y14820762D01*
X9565497Y14789336D01*
X9571085Y14755018D01*
X9568634Y14720382D01*
X9557762Y14688000D01*
X9555945Y14684520D01*
X9534181Y14653929D01*
X9506979Y14632353D01*
X9474085Y14619646D01*
X9436139Y14615658D01*
X9407477Y14618079D01*
X9383675Y14624567D01*
X9381729Y14625414D01*
X9362967Y14637187D01*
X9343630Y14654452D01*
X9326857Y14673938D01*
X9315789Y14692378D01*
X9314682Y14695229D01*
X9309402Y14710374D01*
X9140696Y14711906D01*
X9093476Y14712383D01*
X9055718Y14712907D01*
X9026297Y14713546D01*
X9004092Y14714367D01*
X8987980Y14715434D01*
X8976839Y14716816D01*
X8969545Y14718579D01*
X8964976Y14720789D01*
X8962988Y14722446D01*
X8955187Y14736940D01*
X8954681Y14754316D01*
X8961207Y14770045D01*
X8966037Y14775116D01*
X8970083Y14777859D01*
X8975478Y14780036D01*
X8983392Y14781713D01*
X8994998Y14782954D01*
X9011469Y14783823D01*
X9033977Y14784385D01*
X9063693Y14784704D01*
X9101790Y14784846D01*
X9143127Y14784875D01*
X9308165Y14784875D01*
X9314393Y14802096D01*
X9325145Y14821318D01*
X9342462Y14841403D01*
X9363150Y14859118D01*
X9381729Y14870236D01*
X9411539Y14878697D01*
X9444937Y14879851D01*
X9478649Y14874212D01*
G36*
X10102801Y15352833D02*
X10133935Y15344215D01*
X10162428Y15328145D01*
X10186597Y15304633D01*
X10200614Y15282630D01*
X10210907Y15253852D01*
X10215394Y15221932D01*
X10213815Y15190945D01*
X10207891Y15169289D01*
X10189722Y15138795D01*
X10164313Y15114574D01*
X10133502Y15097459D01*
X10099127Y15088284D01*
X10063027Y15087885D01*
X10039294Y15092791D01*
X10018496Y15102756D01*
X9996502Y15119191D01*
X9976640Y15139062D01*
X9962237Y15159337D01*
X9959154Y15165834D01*
X9950669Y15187042D01*
X9783796Y15187042D01*
X9678062Y15081208D01*
X9572328Y14975375D01*
X9272797Y14975375D01*
X9208953Y14975384D01*
X9154855Y14975430D01*
X9109662Y14975541D01*
X9072537Y14975747D01*
X9042641Y14976077D01*
X9019136Y14976559D01*
X9001182Y14977222D01*
X8987942Y14978096D01*
X8978576Y14979208D01*
X8972246Y14980589D01*
X8968113Y14982266D01*
X8965340Y14984270D01*
X8963626Y14986027D01*
X8955979Y15000357D01*
X8954369Y15016911D01*
X8958781Y15031403D01*
X8963817Y15036978D01*
X8967761Y15038604D01*
X8975304Y15039976D01*
X8987223Y15041116D01*
X9004298Y15042042D01*
X9027307Y15042772D01*
X9057026Y15043327D01*
X9094235Y15043724D01*
X9139712Y15043984D01*
X9194234Y15044125D01*
X9256898Y15044167D01*
X9540149Y15044167D01*
X9752735Y15255833D01*
X9852982Y15256074D01*
X9953229Y15256314D01*
X9966458Y15283844D01*
X9985536Y15312615D01*
X10010394Y15333891D01*
X10039346Y15347680D01*
X10070710Y15353991D01*
X10102801Y15352833D01*
X10102801Y15352833D01*
G37*
X10102801Y15352833D02*
X10133935Y15344215D01*
X10162428Y15328145D01*
X10186597Y15304633D01*
X10200614Y15282630D01*
X10210907Y15253852D01*
X10215394Y15221932D01*
X10213815Y15190945D01*
X10207891Y15169289D01*
X10189722Y15138795D01*
X10164313Y15114574D01*
X10133502Y15097459D01*
X10099127Y15088284D01*
X10063027Y15087885D01*
X10039294Y15092791D01*
X10018496Y15102756D01*
X9996502Y15119191D01*
X9976640Y15139062D01*
X9962237Y15159337D01*
X9959154Y15165834D01*
X9950669Y15187042D01*
X9783796Y15187042D01*
X9678062Y15081208D01*
X9572328Y14975375D01*
X9272797Y14975375D01*
X9208953Y14975384D01*
X9154855Y14975430D01*
X9109662Y14975541D01*
X9072537Y14975747D01*
X9042641Y14976077D01*
X9019136Y14976559D01*
X9001182Y14977222D01*
X8987942Y14978096D01*
X8978576Y14979208D01*
X8972246Y14980589D01*
X8968113Y14982266D01*
X8965340Y14984270D01*
X8963626Y14986027D01*
X8955979Y15000357D01*
X8954369Y15016911D01*
X8958781Y15031403D01*
X8963817Y15036978D01*
X8967761Y15038604D01*
X8975304Y15039976D01*
X8987223Y15041116D01*
X9004298Y15042042D01*
X9027307Y15042772D01*
X9057026Y15043327D01*
X9094235Y15043724D01*
X9139712Y15043984D01*
X9194234Y15044125D01*
X9256898Y15044167D01*
X9540149Y15044167D01*
X9752735Y15255833D01*
X9852982Y15256074D01*
X9953229Y15256314D01*
X9966458Y15283844D01*
X9985536Y15312615D01*
X10010394Y15333891D01*
X10039346Y15347680D01*
X10070710Y15353991D01*
X10102801Y15352833D01*
G36*
X9476961Y15401125D02*
X9508548Y15387339D01*
X9535798Y15365935D01*
X9556908Y15337537D01*
X9562960Y15325010D01*
X9569511Y15299371D01*
X9570924Y15269261D01*
X9567297Y15239405D01*
X9560766Y15218732D01*
X9541331Y15186821D01*
X9515232Y15163084D01*
X9482742Y15147700D01*
X9444131Y15140848D01*
X9442583Y15140761D01*
X9419611Y15140615D01*
X9401562Y15143689D01*
X9383020Y15150944D01*
X9381690Y15151573D01*
X9353690Y15169455D01*
X9330778Y15192989D01*
X9315620Y15219400D01*
X9314989Y15221087D01*
X9308165Y15239958D01*
X9140907Y15239958D01*
X9092081Y15240048D01*
X9052835Y15240342D01*
X9022167Y15240882D01*
X8999074Y15241709D01*
X8982555Y15242863D01*
X8971607Y15244385D01*
X8965227Y15246316D01*
X8963817Y15247147D01*
X8956073Y15258650D01*
X8954342Y15274590D01*
X8954615Y15275614D01*
X9354457Y15275614D01*
X9359525Y15250343D01*
X9361953Y15244469D01*
X9375396Y15220990D01*
X9392480Y15205161D01*
X9414452Y15194708D01*
X9430268Y15189466D01*
X9441209Y15188082D01*
X9452237Y15190775D01*
X9466615Y15196988D01*
X9491784Y15213197D01*
X9509139Y15234191D01*
X9518608Y15258111D01*
X9520117Y15283097D01*
X9513594Y15307292D01*
X9498967Y15328835D01*
X9476162Y15345867D01*
X9472509Y15347693D01*
X9445197Y15355839D01*
X9419291Y15353586D01*
X9394583Y15340881D01*
X9374838Y15322363D01*
X9359488Y15299176D01*
X9354457Y15275614D01*
X8954615Y15275614D01*
X8958639Y15290682D01*
X8963626Y15298099D01*
X8966699Y15301055D01*
X8970747Y15303407D01*
X8976917Y15305225D01*
X8986357Y15306576D01*
X9000216Y15307529D01*
X9019640Y15308154D01*
X9045780Y15308520D01*
X9079782Y15308695D01*
X9122795Y15308748D01*
X9141205Y15308750D01*
X9309144Y15308750D01*
X9312213Y15320977D01*
X9321562Y15341410D01*
X9338268Y15362496D01*
X9359730Y15381316D01*
X9374200Y15390520D01*
X9407984Y15403342D01*
X9442839Y15406668D01*
X9476961Y15401125D01*
X9476961Y15401125D01*
G37*
X9476961Y15401125D02*
X9508548Y15387339D01*
X9535798Y15365935D01*
X9556908Y15337537D01*
X9562960Y15325010D01*
X9569511Y15299371D01*
X9570924Y15269261D01*
X9567297Y15239405D01*
X9560766Y15218732D01*
X9541331Y15186821D01*
X9515232Y15163084D01*
X9482742Y15147700D01*
X9444131Y15140848D01*
X9442583Y15140761D01*
X9419611Y15140615D01*
X9401562Y15143689D01*
X9383020Y15150944D01*
X9381690Y15151573D01*
X9353690Y15169455D01*
X9330778Y15192989D01*
X9315620Y15219400D01*
X9314989Y15221087D01*
X9308165Y15239958D01*
X9140907Y15239958D01*
X9092081Y15240048D01*
X9052835Y15240342D01*
X9022167Y15240882D01*
X8999074Y15241709D01*
X8982555Y15242863D01*
X8971607Y15244385D01*
X8965227Y15246316D01*
X8963817Y15247147D01*
X8956073Y15258650D01*
X8954342Y15274590D01*
X8954615Y15275614D01*
X9354457Y15275614D01*
X9359525Y15250343D01*
X9361953Y15244469D01*
X9375396Y15220990D01*
X9392480Y15205161D01*
X9414452Y15194708D01*
X9430268Y15189466D01*
X9441209Y15188082D01*
X9452237Y15190775D01*
X9466615Y15196988D01*
X9491784Y15213197D01*
X9509139Y15234191D01*
X9518608Y15258111D01*
X9520117Y15283097D01*
X9513594Y15307292D01*
X9498967Y15328835D01*
X9476162Y15345867D01*
X9472509Y15347693D01*
X9445197Y15355839D01*
X9419291Y15353586D01*
X9394583Y15340881D01*
X9374838Y15322363D01*
X9359488Y15299176D01*
X9354457Y15275614D01*
X8954615Y15275614D01*
X8958639Y15290682D01*
X8963626Y15298099D01*
X8966699Y15301055D01*
X8970747Y15303407D01*
X8976917Y15305225D01*
X8986357Y15306576D01*
X9000216Y15307529D01*
X9019640Y15308154D01*
X9045780Y15308520D01*
X9079782Y15308695D01*
X9122795Y15308748D01*
X9141205Y15308750D01*
X9309144Y15308750D01*
X9312213Y15320977D01*
X9321562Y15341410D01*
X9338268Y15362496D01*
X9359730Y15381316D01*
X9374200Y15390520D01*
X9407984Y15403342D01*
X9442839Y15406668D01*
X9476961Y15401125D01*
G36*
X9802862Y15665288D02*
X9813749Y15662442D01*
X9843412Y15648329D01*
X9868019Y15626331D01*
X9886665Y15598302D01*
X9898441Y15566092D01*
X9902442Y15531555D01*
X9897760Y15496542D01*
X9896735Y15492936D01*
X9886494Y15471476D01*
X9869692Y15449041D01*
X9849385Y15429067D01*
X9828633Y15414991D01*
X9826434Y15413940D01*
X9798981Y15406059D01*
X9767137Y15403945D01*
X9735304Y15407479D01*
X9707884Y15416540D01*
X9706516Y15417235D01*
X9677793Y15437379D01*
X9655224Y15463729D01*
X9645439Y15482052D01*
X9638233Y15499250D01*
X9308161Y15499250D01*
X9240746Y15499263D01*
X9183113Y15499317D01*
X9134463Y15499435D01*
X9093994Y15499639D01*
X9060907Y15499954D01*
X9034400Y15500400D01*
X9013674Y15501002D01*
X8997926Y15501782D01*
X8986358Y15502762D01*
X8978168Y15503967D01*
X8972556Y15505418D01*
X8968721Y15507138D01*
X8966037Y15509009D01*
X8956606Y15522670D01*
X8954097Y15539899D01*
X8958770Y15556168D01*
X8962992Y15561679D01*
X8965483Y15563519D01*
X8969526Y15565101D01*
X8975903Y15566448D01*
X8985397Y15567584D01*
X8998792Y15568533D01*
X9016870Y15569320D01*
X9040414Y15569968D01*
X9070208Y15570501D01*
X9107034Y15570942D01*
X9151676Y15571317D01*
X9204916Y15571648D01*
X9267538Y15571959D01*
X9305156Y15572126D01*
X9638314Y15573565D01*
X9651496Y15599579D01*
X9671623Y15628237D01*
X9698469Y15649774D01*
X9730389Y15663554D01*
X9765735Y15668938D01*
X9802862Y15665288D01*
X9802862Y15665288D01*
G37*
X9802862Y15665288D02*
X9813749Y15662442D01*
X9843412Y15648329D01*
X9868019Y15626331D01*
X9886665Y15598302D01*
X9898441Y15566092D01*
X9902442Y15531555D01*
X9897760Y15496542D01*
X9896735Y15492936D01*
X9886494Y15471476D01*
X9869692Y15449041D01*
X9849385Y15429067D01*
X9828633Y15414991D01*
X9826434Y15413940D01*
X9798981Y15406059D01*
X9767137Y15403945D01*
X9735304Y15407479D01*
X9707884Y15416540D01*
X9706516Y15417235D01*
X9677793Y15437379D01*
X9655224Y15463729D01*
X9645439Y15482052D01*
X9638233Y15499250D01*
X9308161Y15499250D01*
X9240746Y15499263D01*
X9183113Y15499317D01*
X9134463Y15499435D01*
X9093994Y15499639D01*
X9060907Y15499954D01*
X9034400Y15500400D01*
X9013674Y15501002D01*
X8997926Y15501782D01*
X8986358Y15502762D01*
X8978168Y15503967D01*
X8972556Y15505418D01*
X8968721Y15507138D01*
X8966037Y15509009D01*
X8956606Y15522670D01*
X8954097Y15539899D01*
X8958770Y15556168D01*
X8962992Y15561679D01*
X8965483Y15563519D01*
X8969526Y15565101D01*
X8975903Y15566448D01*
X8985397Y15567584D01*
X8998792Y15568533D01*
X9016870Y15569320D01*
X9040414Y15569968D01*
X9070208Y15570501D01*
X9107034Y15570942D01*
X9151676Y15571317D01*
X9204916Y15571648D01*
X9267538Y15571959D01*
X9305156Y15572126D01*
X9638314Y15573565D01*
X9651496Y15599579D01*
X9671623Y15628237D01*
X9698469Y15649774D01*
X9730389Y15663554D01*
X9765735Y15668938D01*
X9802862Y15665288D01*
D11*
X16171429Y700000D02*
X15885714Y500000D01*
X16171429Y357143D02*
X15571429Y357143D01*
X15571429Y585715D01*
X15600000Y642857D01*
X15628571Y671429D01*
X15685714Y700000D01*
X15771429Y700000D01*
X15828571Y671429D01*
X15857143Y642857D01*
X15885714Y585715D01*
X15885714Y357143D01*
X15828571Y1042857D02*
X15800000Y985715D01*
X15771429Y957143D01*
X15714286Y928572D01*
X15685714Y928572D01*
X15628571Y957143D01*
X15600000Y985715D01*
X15571429Y1042857D01*
X15571429Y1157143D01*
X15600000Y1214286D01*
X15628571Y1242857D01*
X15685714Y1271429D01*
X15714286Y1271429D01*
X15771429Y1242857D01*
X15800000Y1214286D01*
X15828571Y1157143D01*
X15828571Y1042857D01*
X15857143Y985715D01*
X15885714Y957143D01*
X15942857Y928572D01*
X16057143Y928572D01*
X16114286Y957143D01*
X16142857Y985715D01*
X16171429Y1042857D01*
X16171429Y1157143D01*
X16142857Y1214286D01*
X16114286Y1242857D01*
X16057143Y1271429D01*
X15942857Y1271429D01*
X15885714Y1242857D01*
X15857143Y1214286D01*
X15828571Y1157143D01*
X10921429Y164286D02*
X10321429Y164286D01*
X10321429Y307143D01*
X10350000Y392858D01*
X10407143Y450000D01*
X10464286Y478572D01*
X10578571Y507143D01*
X10664286Y507143D01*
X10778571Y478572D01*
X10835714Y450000D01*
X10892857Y392858D01*
X10921429Y307143D01*
X10921429Y164286D01*
X10921429Y1050000D02*
X10921429Y764286D01*
X10321429Y764286D01*
X10521429Y1507143D02*
X10921429Y1507143D01*
X10292857Y1364286D02*
X10721429Y1221429D01*
X10721429Y1592857D01*
X11233334Y483333D02*
X11233334Y1183333D01*
X11300000Y750000D02*
X11500000Y483333D01*
X11500000Y950000D02*
X11233334Y683333D01*
X7450000Y4528571D02*
X7250000Y4814286D01*
X7107143Y4528571D02*
X7107143Y5128571D01*
X7335715Y5128571D01*
X7392857Y5100000D01*
X7421429Y5071429D01*
X7450000Y5014286D01*
X7450000Y4928571D01*
X7421429Y4871429D01*
X7392857Y4842857D01*
X7335715Y4814286D01*
X7107143Y4814286D01*
X7964286Y5128571D02*
X7850000Y5128571D01*
X7792857Y5100000D01*
X7764286Y5071429D01*
X7707143Y4985714D01*
X7678572Y4871429D01*
X7678572Y4642857D01*
X7707143Y4585714D01*
X7735715Y4557143D01*
X7792857Y4528571D01*
X7907143Y4528571D01*
X7964286Y4557143D01*
X7992857Y4585714D01*
X8021429Y4642857D01*
X8021429Y4785714D01*
X7992857Y4842857D01*
X7964286Y4871429D01*
X7907143Y4900000D01*
X7792857Y4900000D01*
X7735715Y4871429D01*
X7707143Y4842857D01*
X7678572Y4785714D01*
X8600000Y5235714D02*
X8571429Y5207143D01*
X8485715Y5178571D01*
X8428572Y5178571D01*
X8342857Y5207143D01*
X8285715Y5264286D01*
X8257143Y5321429D01*
X8228572Y5435714D01*
X8228572Y5521429D01*
X8257143Y5635714D01*
X8285715Y5692857D01*
X8342857Y5750000D01*
X8428572Y5778571D01*
X8485715Y5778571D01*
X8571429Y5750000D01*
X8600000Y5721429D01*
X9171429Y5178571D02*
X8828572Y5178571D01*
X9000000Y5178571D02*
X9000000Y5778571D01*
X8942857Y5692857D01*
X8885715Y5635714D01*
X8828572Y5607143D01*
X5750000Y9985714D02*
X5721429Y9957143D01*
X5635715Y9928571D01*
X5578572Y9928571D01*
X5492857Y9957143D01*
X5435715Y10014286D01*
X5407143Y10071429D01*
X5378572Y10185714D01*
X5378572Y10271429D01*
X5407143Y10385714D01*
X5435715Y10442857D01*
X5492857Y10500000D01*
X5578572Y10528571D01*
X5635715Y10528571D01*
X5721429Y10500000D01*
X5750000Y10471429D01*
X5978572Y10471429D02*
X6007143Y10500000D01*
X6064286Y10528571D01*
X6207143Y10528571D01*
X6264286Y10500000D01*
X6292857Y10471429D01*
X6321429Y10414286D01*
X6321429Y10357143D01*
X6292857Y10271429D01*
X5950000Y9928571D01*
X6321429Y9928571D01*
X6392857Y271429D02*
X6335714Y300000D01*
X6278571Y357143D01*
X6192857Y442857D01*
X6135714Y471429D01*
X6078571Y471429D01*
X6107143Y328571D02*
X6050000Y357143D01*
X5992857Y414286D01*
X5964286Y528571D01*
X5964286Y728571D01*
X5992857Y842857D01*
X6050000Y900000D01*
X6107143Y928571D01*
X6221429Y928571D01*
X6278571Y900000D01*
X6335714Y842857D01*
X6364286Y728571D01*
X6364286Y528571D01*
X6335714Y414286D01*
X6278571Y357143D01*
X6221429Y328571D01*
X6107143Y328571D01*
X6935714Y328571D02*
X6592857Y328571D01*
X6764285Y328571D02*
X6764285Y928571D01*
X6707142Y842857D01*
X6650000Y785714D01*
X6592857Y757143D01*
X7350000Y7528571D02*
X7150000Y7814286D01*
X7007143Y7528571D02*
X7007143Y8128571D01*
X7235715Y8128571D01*
X7292857Y8100000D01*
X7321429Y8071429D01*
X7350000Y8014286D01*
X7350000Y7928571D01*
X7321429Y7871429D01*
X7292857Y7842857D01*
X7235715Y7814286D01*
X7007143Y7814286D01*
X7921429Y7528571D02*
X7578572Y7528571D01*
X7750000Y7528571D02*
X7750000Y8128571D01*
X7692857Y8042857D01*
X7635715Y7985714D01*
X7578572Y7957143D01*
X8450000Y7878571D02*
X8250000Y8164286D01*
X8107143Y7878571D02*
X8107143Y8478571D01*
X8335715Y8478571D01*
X8392857Y8450000D01*
X8421429Y8421429D01*
X8450000Y8364286D01*
X8450000Y8278571D01*
X8421429Y8221429D01*
X8392857Y8192857D01*
X8335715Y8164286D01*
X8107143Y8164286D01*
X8678572Y8421429D02*
X8707143Y8450000D01*
X8764286Y8478571D01*
X8907143Y8478571D01*
X8964286Y8450000D01*
X8992857Y8421429D01*
X9021429Y8364286D01*
X9021429Y8307143D01*
X8992857Y8221429D01*
X8650000Y7878571D01*
X9021429Y7878571D01*
X10450000Y7878571D02*
X10250000Y8164286D01*
X10107143Y7878571D02*
X10107143Y8478571D01*
X10335715Y8478571D01*
X10392857Y8450000D01*
X10421429Y8421429D01*
X10450000Y8364286D01*
X10450000Y8278571D01*
X10421429Y8221429D01*
X10392857Y8192857D01*
X10335715Y8164286D01*
X10107143Y8164286D01*
X10650000Y8478571D02*
X11021429Y8478571D01*
X10821429Y8250000D01*
X10907143Y8250000D01*
X10964286Y8221429D01*
X10992857Y8192857D01*
X11021429Y8135714D01*
X11021429Y7992857D01*
X10992857Y7935714D01*
X10964286Y7907143D01*
X10907143Y7878571D01*
X10735715Y7878571D01*
X10678572Y7907143D01*
X10650000Y7935714D01*
X14214286Y1800000D02*
X14242857Y1771429D01*
X14271429Y1685715D01*
X14271429Y1628572D01*
X14242857Y1542857D01*
X14185714Y1485715D01*
X14128571Y1457143D01*
X14014286Y1428572D01*
X13928571Y1428572D01*
X13814286Y1457143D01*
X13757143Y1485715D01*
X13700000Y1542857D01*
X13671429Y1628572D01*
X13671429Y1685715D01*
X13700000Y1771429D01*
X13728571Y1800000D01*
X13671429Y2314286D02*
X13671429Y2200000D01*
X13700000Y2142857D01*
X13728571Y2114286D01*
X13814286Y2057143D01*
X13928571Y2028572D01*
X14157143Y2028572D01*
X14214286Y2057143D01*
X14242857Y2085715D01*
X14271429Y2142857D01*
X14271429Y2257143D01*
X14242857Y2314286D01*
X14214286Y2342857D01*
X14157143Y2371429D01*
X14014286Y2371429D01*
X13957143Y2342857D01*
X13928571Y2314286D01*
X13900000Y2257143D01*
X13900000Y2142857D01*
X13928571Y2085715D01*
X13957143Y2057143D01*
X14014286Y2028572D01*
X15100000Y4678571D02*
X14814286Y4678571D01*
X14814286Y5278571D01*
X15614286Y4678571D02*
X15271429Y4678571D01*
X15442857Y4678571D02*
X15442857Y5278571D01*
X15385714Y5192857D01*
X15328572Y5135714D01*
X15271429Y5107143D01*
X8800000Y335714D02*
X8771429Y307143D01*
X8685715Y278571D01*
X8628572Y278571D01*
X8542857Y307143D01*
X8485715Y364286D01*
X8457143Y421429D01*
X8428572Y535714D01*
X8428572Y621429D01*
X8457143Y735714D01*
X8485715Y792857D01*
X8542857Y850000D01*
X8628572Y878571D01*
X8685715Y878571D01*
X8771429Y850000D01*
X8800000Y821429D01*
X9314286Y678571D02*
X9314286Y278571D01*
X9171429Y907143D02*
X9028572Y478571D01*
X9400000Y478571D01*
X14150000Y6228571D02*
X13950000Y6514286D01*
X13807143Y6228571D02*
X13807143Y6828571D01*
X14035715Y6828571D01*
X14092857Y6800000D01*
X14121429Y6771429D01*
X14150000Y6714286D01*
X14150000Y6628571D01*
X14121429Y6571429D01*
X14092857Y6542857D01*
X14035715Y6514286D01*
X13807143Y6514286D01*
X14692857Y6828571D02*
X14407143Y6828571D01*
X14378572Y6542857D01*
X14407143Y6571429D01*
X14464286Y6600000D01*
X14607143Y6600000D01*
X14664286Y6571429D01*
X14692857Y6542857D01*
X14721429Y6485714D01*
X14721429Y6342857D01*
X14692857Y6285714D01*
X14664286Y6257143D01*
X14607143Y6228571D01*
X14464286Y6228571D01*
X14407143Y6257143D01*
X14378572Y6285714D01*
X14214286Y7078571D02*
X14214286Y7678571D01*
X14357143Y7678571D01*
X14442858Y7650000D01*
X14500000Y7592857D01*
X14528572Y7535714D01*
X14557143Y7421429D01*
X14557143Y7335714D01*
X14528572Y7221429D01*
X14500000Y7164286D01*
X14442858Y7107143D01*
X14357143Y7078571D01*
X14214286Y7078571D01*
X15100000Y7078571D02*
X14814286Y7078571D01*
X14814286Y7678571D01*
X15614286Y7078571D02*
X15271429Y7078571D01*
X15442857Y7078571D02*
X15442857Y7678571D01*
X15385714Y7592857D01*
X15328572Y7535714D01*
X15271429Y7507143D01*
X13466667Y8533334D02*
X12766667Y8533334D01*
X13200000Y8600000D02*
X13466667Y8800000D01*
X13000000Y8800000D02*
X13266667Y8533334D01*
X10850000Y14128571D02*
X10650000Y14414286D01*
X10507143Y14128571D02*
X10507143Y14728571D01*
X10735715Y14728571D01*
X10792857Y14700000D01*
X10821429Y14671429D01*
X10850000Y14614286D01*
X10850000Y14528571D01*
X10821429Y14471429D01*
X10792857Y14442857D01*
X10735715Y14414286D01*
X10507143Y14414286D01*
X11364286Y14528571D02*
X11364286Y14128571D01*
X11221429Y14757143D02*
X11078572Y14328571D01*
X11450000Y14328571D01*
X9264286Y9400000D02*
X9292857Y9371429D01*
X9321429Y9285715D01*
X9321429Y9228572D01*
X9292857Y9142857D01*
X9235714Y9085715D01*
X9178571Y9057143D01*
X9064286Y9028572D01*
X8978571Y9028572D01*
X8864286Y9057143D01*
X8807143Y9085715D01*
X8750000Y9142857D01*
X8721429Y9228572D01*
X8721429Y9285715D01*
X8750000Y9371429D01*
X8778571Y9400000D01*
X8721429Y9600000D02*
X8721429Y9971429D01*
X8950000Y9771429D01*
X8950000Y9857143D01*
X8978571Y9914286D01*
X9007143Y9942857D01*
X9064286Y9971429D01*
X9207143Y9971429D01*
X9264286Y9942857D01*
X9292857Y9914286D01*
X9321429Y9857143D01*
X9321429Y9685715D01*
X9292857Y9628572D01*
X9264286Y9600000D01*
X14664286Y14028571D02*
X14664286Y14628571D01*
X14807143Y14628571D01*
X14892858Y14600000D01*
X14950000Y14542857D01*
X14978572Y14485714D01*
X15007143Y14371429D01*
X15007143Y14285714D01*
X14978572Y14171429D01*
X14950000Y14114286D01*
X14892858Y14057143D01*
X14807143Y14028571D01*
X14664286Y14028571D01*
X15550000Y14028571D02*
X15264286Y14028571D01*
X15264286Y14628571D01*
X15721429Y14571429D02*
X15750000Y14600000D01*
X15807143Y14628571D01*
X15950000Y14628571D01*
X16007143Y14600000D01*
X16035714Y14571429D01*
X16064286Y14514286D01*
X16064286Y14457143D01*
X16035714Y14371429D01*
X15692857Y14028571D01*
X16064286Y14028571D01*
X13866667Y14433334D02*
X13166667Y14433334D01*
X13600000Y14500000D02*
X13866667Y14700000D01*
X13400000Y14700000D02*
X13666667Y14433334D01*
X5021429Y2950000D02*
X4735714Y2750000D01*
X5021429Y2607143D02*
X4421429Y2607143D01*
X4421429Y2835715D01*
X4450000Y2892857D01*
X4478571Y2921429D01*
X4535714Y2950000D01*
X4621429Y2950000D01*
X4678571Y2921429D01*
X4707143Y2892857D01*
X4735714Y2835715D01*
X4735714Y2607143D01*
X4421429Y3150000D02*
X4421429Y3550000D01*
X5021429Y3292857D01*
X2164286Y528571D02*
X2164286Y1128571D01*
X2307143Y1128571D01*
X2392858Y1100000D01*
X2450000Y1042857D01*
X2478572Y985714D01*
X2507143Y871429D01*
X2507143Y785714D01*
X2478572Y671429D01*
X2450000Y614286D01*
X2392858Y557143D01*
X2307143Y528571D01*
X2164286Y528571D01*
X3050000Y528571D02*
X2764286Y528571D01*
X2764286Y1128571D01*
X3192857Y1128571D02*
X3564286Y1128571D01*
X3364286Y900000D01*
X3450000Y900000D01*
X3507143Y871429D01*
X3535714Y842857D01*
X3564286Y785714D01*
X3564286Y642857D01*
X3535714Y585714D01*
X3507143Y557143D01*
X3450000Y528571D01*
X3278572Y528571D01*
X3221429Y557143D01*
X3192857Y585714D01*
X4566667Y233334D02*
X3866667Y233334D01*
X4300000Y300000D02*
X4566667Y500000D01*
X4100000Y500000D02*
X4366667Y233334D01*
X9264286Y6350000D02*
X9292857Y6321429D01*
X9321429Y6235715D01*
X9321429Y6178572D01*
X9292857Y6092857D01*
X9235714Y6035715D01*
X9178571Y6007143D01*
X9064286Y5978572D01*
X8978571Y5978572D01*
X8864286Y6007143D01*
X8807143Y6035715D01*
X8750000Y6092857D01*
X8721429Y6178572D01*
X8721429Y6235715D01*
X8750000Y6321429D01*
X8778571Y6350000D01*
X8721429Y6550000D02*
X8721429Y6950000D01*
X9321429Y6692857D01*
X9264286Y4150000D02*
X9292857Y4121429D01*
X9321429Y4035715D01*
X9321429Y3978572D01*
X9292857Y3892857D01*
X9235714Y3835715D01*
X9178571Y3807143D01*
X9064286Y3778572D01*
X8978571Y3778572D01*
X8864286Y3807143D01*
X8807143Y3835715D01*
X8750000Y3892857D01*
X8721429Y3978572D01*
X8721429Y4035715D01*
X8750000Y4121429D01*
X8778571Y4150000D01*
X8721429Y4692857D02*
X8721429Y4407143D01*
X9007143Y4378572D01*
X8978571Y4407143D01*
X8950000Y4464286D01*
X8950000Y4607143D01*
X8978571Y4664286D01*
X9007143Y4692857D01*
X9064286Y4721429D01*
X9207143Y4721429D01*
X9264286Y4692857D01*
X9292857Y4664286D01*
X9321429Y4607143D01*
X9321429Y4464286D01*
X9292857Y4407143D01*
X9264286Y4378572D01*
X4607143Y12378571D02*
X4607143Y12978571D01*
X4835715Y12978571D01*
X4892857Y12950000D01*
X4921429Y12921429D01*
X4950000Y12864286D01*
X4950000Y12778571D01*
X4921429Y12721429D01*
X4892857Y12692857D01*
X4835715Y12664286D01*
X4607143Y12664286D01*
X5521429Y12378571D02*
X5178572Y12378571D01*
X5350000Y12378571D02*
X5350000Y12978571D01*
X5292857Y12892857D01*
X5235715Y12835714D01*
X5178572Y12807143D01*
X8592857Y12828571D02*
X8592857Y12342857D01*
X8621429Y12285714D01*
X8650000Y12257143D01*
X8707143Y12228571D01*
X8821429Y12228571D01*
X8878571Y12257143D01*
X8907143Y12285714D01*
X8935714Y12342857D01*
X8935714Y12828571D01*
X9535714Y12228571D02*
X9192857Y12228571D01*
X9364285Y12228571D02*
X9364285Y12828571D01*
X9307142Y12742857D01*
X9250000Y12685714D01*
X9192857Y12657143D01*
X15921429Y8057143D02*
X15321429Y8057143D01*
X15321429Y8285715D01*
X15350000Y8342857D01*
X15378571Y8371429D01*
X15435714Y8400000D01*
X15521429Y8400000D01*
X15578571Y8371429D01*
X15607143Y8342857D01*
X15635714Y8285715D01*
X15635714Y8057143D01*
X15378571Y8628572D02*
X15350000Y8657143D01*
X15321429Y8714286D01*
X15321429Y8857143D01*
X15350000Y8914286D01*
X15378571Y8942857D01*
X15435714Y8971429D01*
X15492857Y8971429D01*
X15578571Y8942857D01*
X15921429Y8600000D01*
X15921429Y8971429D01*
X24611905Y13566667D02*
X24230952Y13300000D01*
X24611905Y13109524D02*
X23811905Y13109524D01*
X23811905Y13414286D01*
X23850000Y13490477D01*
X23888095Y13528572D01*
X23964286Y13566667D01*
X24078571Y13566667D01*
X24154762Y13528572D01*
X24192857Y13490477D01*
X24230952Y13414286D01*
X24230952Y13109524D01*
X23811905Y13833334D02*
X24611905Y14366667D01*
X23811905Y14366667D02*
X24611905Y13833334D01*
X24307143Y700000D02*
X24307143Y1309524D01*
X24611905Y1004762D02*
X24002381Y1004762D01*
X23811905Y1614286D02*
X23811905Y2109524D01*
X24116667Y1842857D01*
X24116667Y1957143D01*
X24154762Y2033333D01*
X24192857Y2071429D01*
X24269048Y2109524D01*
X24459524Y2109524D01*
X24535714Y2071429D01*
X24573810Y2033333D01*
X24611905Y1957143D01*
X24611905Y1728571D01*
X24573810Y1652381D01*
X24535714Y1614286D01*
X24535714Y2452381D02*
X24573810Y2490476D01*
X24611905Y2452381D01*
X24573810Y2414286D01*
X24535714Y2452381D01*
X24611905Y2452381D01*
X23811905Y2757143D02*
X23811905Y3252381D01*
X24116667Y2985714D01*
X24116667Y3100000D01*
X24154762Y3176190D01*
X24192857Y3214286D01*
X24269048Y3252381D01*
X24459524Y3252381D01*
X24535714Y3214286D01*
X24573810Y3176190D01*
X24611905Y3100000D01*
X24611905Y2871428D01*
X24573810Y2795238D01*
X24535714Y2757143D01*
X23811905Y3480952D02*
X24611905Y3747619D01*
X23811905Y4014286D01*
X23811905Y9290476D02*
X23811905Y9747619D01*
X24611905Y9519048D02*
X23811905Y9519048D01*
X23811905Y9938096D02*
X24611905Y10471429D01*
X23811905Y10471429D02*
X24611905Y9938096D01*
X23850000Y5490477D02*
X23811905Y5414286D01*
X23811905Y5300001D01*
X23850000Y5185715D01*
X23926190Y5109524D01*
X24002381Y5071429D01*
X24154762Y5033334D01*
X24269048Y5033334D01*
X24421429Y5071429D01*
X24497619Y5109524D01*
X24573810Y5185715D01*
X24611905Y5300001D01*
X24611905Y5376191D01*
X24573810Y5490477D01*
X24535714Y5528572D01*
X24269048Y5528572D01*
X24269048Y5376191D01*
X24611905Y5871429D02*
X23811905Y5871429D01*
X24611905Y6328572D01*
X23811905Y6328572D01*
X24611905Y6709524D02*
X23811905Y6709524D01*
X23811905Y6900000D01*
X23850000Y7014286D01*
X23926190Y7090477D01*
X24002381Y7128572D01*
X24154762Y7166667D01*
X24269048Y7166667D01*
X24421429Y7128572D01*
X24497619Y7090477D01*
X24573810Y7014286D01*
X24611905Y6900000D01*
X24611905Y6709524D01*
X11042857Y7278571D02*
X11042857Y6792857D01*
X11071429Y6735714D01*
X11100000Y6707143D01*
X11157143Y6678571D01*
X11271429Y6678571D01*
X11328571Y6707143D01*
X11357143Y6735714D01*
X11385714Y6792857D01*
X11385714Y7278571D01*
X11642857Y7221429D02*
X11671428Y7250000D01*
X11728571Y7278571D01*
X11871428Y7278571D01*
X11928571Y7250000D01*
X11957142Y7221429D01*
X11985714Y7164286D01*
X11985714Y7107143D01*
X11957142Y7021429D01*
X11614285Y6678571D01*
X11985714Y6678571D01*
M02*
